<svg width="120" height="120" viewBox="0 0 120 120" fill="none" xmlns="http://www.w3.org/2000/svg">
<g clip-path="url(#clip0_100_3395)">
<path d="M57.1278 0.234584C56.8087 0.745223 57.4682 0.872882 60.1278 0.809053C62.4044 0.745223 62.8725 0.681393 62.8725 0.426074C62.8725 0.170755 62.3831 0.106925 60.064 0.0430951C58.1704 0.000541866 57.2129 0.0643717 57.1278 0.234584Z" fill="#3D5224"/>
<path d="M49.681 0.744887C48.9789 0.9151 48.1704 1.04276 47.8725 1.06404C47.2129 1.06404 46.6172 1.85127 47.1278 2.04276C47.4044 2.14914 51.7023 1.61723 52.5108 1.36191C52.681 1.31936 52.7661 1.10659 52.7236 0.9151C52.6385 0.425738 51.4044 0.361908 49.681 0.744887Z" fill="#3D5224"/>
<path d="M67.2976 0.765583C67.1061 1.27622 67.404 1.40388 69.3614 1.68048C73.2338 2.25495 73.021 2.25495 72.9359 1.68048C72.8721 1.23367 72.6806 1.14856 70.8508 0.829413C68.2338 0.340051 67.4678 0.340051 67.2976 0.765583Z" fill="#3D5224"/>
<path d="M39.7446 3.36136C37.7234 4.04221 37.4468 4.19114 37.4468 4.61668C37.4468 5.27625 37.7659 5.25497 40.5319 4.27625C42.3829 3.61668 42.8723 3.36136 42.8723 3.06349C42.8723 2.44646 42.234 2.51029 39.7446 3.36136Z" fill="#3D5224"/>
<path d="M77.1065 2.78772C77.0426 2.91538 77.0852 3.12815 77.2129 3.25581C77.4895 3.5324 81.1065 4.8941 81.9788 5.04304C82.532 5.14942 82.5746 5.10687 82.5107 4.66006C82.4682 4.23453 82.1065 4.04304 80.3192 3.36219C78.0852 2.5324 77.3618 2.40474 77.1065 2.78772Z" fill="#3D5224"/>
<path d="M30.6381 7.55425C29.5318 8.19255 28.5318 8.74574 28.4467 8.7883C28.1913 8.8734 28.5105 9.57553 28.8084 9.57553C28.936 9.59681 30.0637 9.08617 31.319 8.46915C33.1701 7.55425 33.5956 7.25638 33.5956 6.85213C33.6169 6.08617 32.8722 6.27766 30.6381 7.55425Z" fill="#3D5224"/>
<path d="M86.4043 6.85213C86.4043 7.25638 86.8298 7.55425 88.6809 8.46915C89.9362 9.08617 91.0851 9.59681 91.234 9.57553C91.3617 9.57553 91.4894 9.38404 91.4894 9.17127C91.4894 8.85213 90.9149 8.42659 89.4043 7.57553C87.1064 6.25638 86.383 6.08617 86.4043 6.85213Z" fill="#3D5224"/>
<path d="M22.6597 12.8949C21.8512 13.5545 20.9576 14.2566 20.681 14.4694C20.1703 14.8736 20.2342 15.5332 20.7661 15.5332C21.2767 15.5332 24.8937 12.5119 24.8937 12.0864C24.8937 11.4055 24.1916 11.6609 22.6597 12.8949Z" fill="#3D5224"/>
<path d="M95.1064 12.0864C95.1064 12.5332 98.7235 15.5332 99.2554 15.5332C100.064 15.5332 99.4894 14.6396 97.7873 13.2141C96.0213 11.7034 95.1064 11.3204 95.1064 12.0864Z" fill="#3D5224"/>
<path d="M14.9574 20.3194C14.0425 21.3194 13.2979 22.2556 13.2979 22.4046C13.2979 22.5535 13.4893 22.6812 13.7447 22.7237C14.0851 22.7663 14.5744 22.3407 15.7234 20.979C16.5532 19.979 17.234 19.0216 17.234 18.8514C17.234 18.1492 16.5532 18.5748 14.9574 20.3194Z" fill="#3D5224"/>
<path d="M102.766 18.9572C102.766 19.4466 105.872 22.9785 106.319 22.9785C106.958 22.9785 106.511 21.9998 105.085 20.2977C103.553 18.4892 102.766 18.0423 102.766 18.9572Z" fill="#3D5224"/>
<path d="M9.93612 26.8516C7.87229 29.5962 7.12761 31.2771 7.97867 31.2771C8.34038 31.2771 11.0638 27.1494 11.0638 26.5962C11.0638 25.958 10.5106 26.0856 9.93612 26.8516Z" fill="#3D5224"/>
<path d="M108.936 26.7026C108.936 27.192 111.702 31.2771 112.042 31.2771C112.574 31.2771 112.362 30.6388 111.149 28.4899C110.149 26.7452 109.872 26.3835 109.447 26.3835C109.149 26.3835 108.936 26.5111 108.936 26.7026Z" fill="#3D5224"/>
<path d="M5.12797 35.4676C4.5535 36.574 3.21308 40.0634 3.31946 40.2336C3.51095 40.574 4.25563 40.4463 4.40456 40.0421C4.46839 39.8506 4.85137 38.8719 5.25563 37.8719C6.27691 35.4038 6.31946 35.1059 5.78754 35.1059C5.53222 35.1059 5.25563 35.2761 5.12797 35.4676Z" fill="#3D5224"/>
<path d="M114.042 35.49C114.042 35.724 114.383 36.8091 114.787 37.873C115.191 38.9368 115.532 39.9581 115.532 40.107C115.532 40.3623 115.979 40.6389 116.404 40.6389C116.808 40.6389 116.532 39.4049 115.681 37.341C115.085 35.9581 114.66 35.1921 114.404 35.1496C114.17 35.107 114.042 35.2134 114.042 35.49Z" fill="#3D5224"/>
<path d="M1.95725 44.7461C1.553 45.2355 0.659382 49.8738 0.935978 50.044C1.51045 50.4482 1.76577 50.0653 2.17002 48.1929C2.80832 45.1716 2.87215 44.4695 2.51045 44.4695C2.31896 44.4695 2.08491 44.5972 1.95725 44.7461Z" fill="#3D5224"/>
<path d="M117.32 44.979C117.256 45.1492 117.405 46.1704 117.639 47.2343C117.894 48.3194 118.085 49.4045 118.085 49.6811C118.085 50.1704 118.596 50.5321 118.958 50.2981C119.532 49.9577 118.49 44.8513 117.809 44.7236C117.617 44.6811 117.383 44.7875 117.32 44.979Z" fill="#3D5224"/>
<path d="M0.255351 54.7236C-0.0637976 55.0427 -0.106351 60.1278 0.212798 60.3193C0.340458 60.4044 0.595777 60.3406 0.76599 60.1916C1.02131 59.9789 1.06386 59.4257 1.02131 57.2767C0.957479 54.6597 0.808543 54.1704 0.255351 54.7236Z" fill="#3D5224"/>
<path d="M119.085 54.6167C119 54.6805 118.937 55.9784 118.937 57.4465C118.937 59.5741 119 60.2124 119.256 60.4252C119.426 60.5528 119.66 60.6167 119.788 60.5316C120.107 60.3401 120.064 55.0422 119.745 54.7231C119.447 54.4252 119.277 54.4039 119.085 54.6167Z" fill="#3D5224"/>
<path d="M0.29819 64.9997C0.0641477 65.5742 0.659892 69.9571 1.00032 70.2337C1.61734 70.7444 1.76628 70.1486 1.51096 68.255C1.3833 67.2976 1.25564 66.1061 1.21308 65.638C1.19181 65.021 1.06415 64.7656 0.787552 64.7231C0.596063 64.6805 0.36202 64.8082 0.29819 64.9997Z" fill="#3D5224"/>
<path d="M118.83 65.1494C118.787 65.2983 118.639 66.3834 118.511 67.5536C118.383 68.7238 118.234 69.8302 118.17 70.0217C118.043 70.4472 118.681 70.7238 119.043 70.4259C119.341 70.1706 119.915 65.7451 119.724 65.2345C119.553 64.8302 118.958 64.7877 118.83 65.1494Z" fill="#3D5224"/>
<path d="M1.91504 75.0427C1.91504 75.3831 2.21291 76.6597 2.57461 77.915C3.1278 79.7874 3.31929 80.2129 3.65972 80.2129C3.87249 80.2129 4.10653 80.064 4.19163 79.8725C4.31929 79.532 3.08525 75.2129 2.70227 74.7235C2.34057 74.2554 1.91504 74.4257 1.91504 75.0427Z" fill="#3D5224"/>
<path d="M117.298 74.9364C116.957 75.4896 115.595 79.8939 115.681 80.1492C115.744 80.2981 115.915 80.4258 116.064 80.4258C116.51 80.4258 116.723 80.0002 117.51 77.5534C118.042 75.8726 118.191 75.1492 118.042 74.9577C117.766 74.6173 117.51 74.6173 117.298 74.9364Z" fill="#3D5224"/>
<path d="M5.31934 84.5954C5.31934 85.4252 7.46827 89.3613 7.93636 89.3613C8.55338 89.3613 8.34061 88.5315 7.1704 86.2762C6.02146 84.0847 5.31934 83.4252 5.31934 84.5954Z" fill="#3D5224"/>
<path d="M112.66 86.5956C111.532 88.8722 111.362 89.6594 112.107 89.5318C112.511 89.4466 114.66 85.4466 114.681 84.7232C114.681 84.4041 114.553 84.2552 114.255 84.2552C113.936 84.2552 113.575 84.7871 112.66 86.5956Z" fill="#3D5224"/>
<path d="M10.2341 93.4479C10.2553 94.1501 12.7873 97.5331 13.3617 97.6182C14.1915 97.7458 13.8936 96.916 12.4256 94.8948C10.9787 92.9586 10.1915 92.4267 10.2341 93.4479Z" fill="#3D5224"/>
<path d="M108.277 93.9793C108 94.4048 107.341 95.3197 106.766 95.9793C105.787 97.1708 105.596 97.8729 106.277 97.8729C106.83 97.8729 109.575 94.2772 109.575 93.5751C109.575 92.8942 108.787 93.1495 108.277 93.9793Z" fill="#3D5224"/>
<path d="M16.5957 101.235C16.5957 101.788 19.8085 104.895 20.3829 104.895C20.6383 104.895 20.851 104.767 20.851 104.618C20.851 104.214 17.3829 100.852 16.9574 100.852C16.7446 100.852 16.5957 101.022 16.5957 101.235Z" fill="#3D5224"/>
<path d="M100.49 102.788C98.7449 104.49 98.4683 105.107 99.447 105.107C100 105.107 103.192 101.98 103.192 101.427C103.192 100.597 102.234 101.086 100.49 102.788Z" fill="#3D5224"/>
<path d="M24.2554 107.852C24.2554 108.469 27.766 111.064 28.5958 111.064C29.4469 111.064 28.8298 110.235 26.9149 108.873C24.8086 107.384 24.2554 107.171 24.2554 107.852Z" fill="#3D5224"/>
<path d="M94.1701 108.191C93.8297 108.468 92.8935 109.064 92.1063 109.51C91.2978 109.957 90.6382 110.361 90.6382 110.425C90.6382 110.489 90.7446 110.681 90.8509 110.851C91.1275 111.276 91.8722 110.978 94.0424 109.553C95.1275 108.829 95.7446 108.276 95.7446 108.042C95.7446 107.489 94.9148 107.574 94.1701 108.191Z" fill="#3D5224"/>
<path d="M32.7661 113.235C32.7661 113.66 33.1065 113.873 34.9576 114.618C37.3406 115.618 38.1704 115.767 38.0427 115.171C37.9789 114.852 33.681 112.767 33.0427 112.767C32.8938 112.767 32.7661 112.979 32.7661 113.235Z" fill="#3D5224"/>
<path d="M83.8936 113.915C82.0426 114.66 81.7234 114.852 81.7021 115.256C81.7021 116.001 82.4681 115.873 84.8936 114.767C86.4681 114.022 87.0213 113.66 87.0213 113.384C87.0213 112.788 86.3617 112.894 83.8936 113.915Z" fill="#3D5224"/>
<path d="M42.1704 116.957C42.2555 117.425 45.3619 118.532 46.681 118.574C47.4257 118.617 47.5534 118.553 47.5534 118.191C47.5534 117.83 47.2129 117.681 45.4257 117.191C42.8087 116.511 42.064 116.447 42.1704 116.957Z" fill="#3D5224"/>
<path d="M74.3194 117.193C72.5322 117.639 72.1279 117.81 72.1279 118.129C72.1279 118.788 72.6598 118.788 75.213 118.171C77.4471 117.618 77.6598 117.533 77.6598 117.086C77.6598 116.448 77.1705 116.469 74.3194 117.193Z" fill="#3D5224"/>
<path d="M51.915 119C51.915 119.596 52.4682 119.745 55.0214 119.894C56.9576 120.021 57.6384 119.979 57.7661 119.787C58.1065 119.213 57.3406 118.979 54.6384 118.83C52.3193 118.724 51.915 118.745 51.915 119Z" fill="#3D5224"/>
<path d="M63.936 118.915C62.3403 119.043 62.2339 119.086 62.1701 119.554L62.085 120.064L64.7233 119.915C67.2977 119.766 68.1275 119.511 67.7871 118.958C67.6382 118.724 66.9147 118.703 63.936 118.915Z" fill="#3D5224"/>
<path d="M94.2076 45.8027L82.811 34.4053C81.7901 33.3852 80.0096 33.3852 78.9888 34.4053L67.5092 45.8856C66.4818 46.9123 66.0037 48.3828 66.2293 49.8184L67.2065 56.0076C67.3294 56.7854 67.0486 57.5595 66.457 58.0776L59.525 64.1452C59.3009 64.341 59.2791 64.6822 59.4748 64.9063C59.672 65.1311 60.0125 65.153 60.2359 64.9573L67.1672 58.8896C68.0403 58.1256 68.4529 56.9855 68.2724 55.8387L67.296 49.6504C67.1235 48.5546 67.4881 47.4326 68.2717 46.6489L79.752 35.1686C80.3654 34.5552 81.4357 34.5559 82.0491 35.1686L93.4458 46.5653C93.7522 46.8723 93.9209 47.2798 93.9209 47.7142C93.9209 48.1478 93.7522 48.5553 93.4458 48.8623L81.9647 60.342C81.1818 61.1263 80.0584 61.4923 78.964 61.3184L72.7625 60.339C71.6275 60.1601 70.4909 60.5668 69.7277 61.4269L63.85 68.0474C63.6513 68.2701 63.6724 68.6113 63.8944 68.8093C63.9969 68.9002 64.125 68.9453 64.2531 68.9453C64.4022 68.9453 64.5506 68.8842 64.6561 68.7641L70.5339 62.1435C71.0527 61.5592 71.8254 61.2842 72.5938 61.405L78.7952 62.3837C80.2337 62.6107 81.7013 62.1319 82.728 61.1053L94.2076 49.6249C94.7191 49.1148 95 48.436 95 47.7142C95 46.9916 94.7191 46.3135 94.2076 45.8027Z" fill="#3D5224"/>
<path d="M44.9746 78.3178L51.2307 72.8417C51.4548 72.6453 51.4773 72.3047 51.2809 72.0799C51.0844 71.8551 50.7439 71.834 50.5191 72.0297L44.2637 77.5058C43.2342 78.4073 42.6106 79.7068 42.5531 81.0718C42.4993 82.3721 42.954 83.5908 43.8366 84.504C44.7316 85.4317 45.9736 85.957 47.2586 85.957C47.2964 85.957 47.3357 85.957 47.3736 85.9556C48.7 85.9236 49.961 85.332 50.832 84.3374L56.7569 77.6636C56.9548 77.441 56.9352 77.0997 56.7118 76.9018C56.4899 76.7046 56.1472 76.7236 55.95 76.9469L50.0228 83.6236C49.3374 84.4065 48.3879 84.851 47.3467 84.8765C46.3047 84.9013 45.3355 84.5032 44.6123 83.7545C43.9385 83.056 43.5892 82.1196 43.6322 81.1169C43.6766 80.0459 44.1662 79.0257 44.9746 78.3178Z" fill="#3D5224"/>
<path d="M81.3995 40.3202L72.9125 48.8072C72.58 49.1404 72.0008 49.1404 71.6683 48.8072C71.3248 48.4637 71.3248 47.9057 71.6683 47.5615L80.1545 39.076C80.3211 38.9094 80.5416 38.8185 80.7766 38.8185C81.0131 38.8185 81.2328 38.9094 81.3995 39.076C81.7429 39.4187 81.7429 39.9775 81.3995 40.3202ZM79.3919 38.3127L70.905 46.7989C70.141 47.5629 70.141 48.8064 70.905 49.5697C71.2747 49.9401 71.7672 50.1445 72.2897 50.1445C72.8136 50.1445 73.3062 49.9401 73.6758 49.5697L82.1627 41.0835C82.9267 40.3195 82.9267 39.076 82.1627 38.3127C81.422 37.5728 80.1327 37.5728 79.3919 38.3127Z" fill="#3D5224"/>
<path d="M85.5098 44.4301L77.0236 52.9163C76.6823 53.2597 76.122 53.2597 75.7779 52.9163C75.4359 52.5736 75.4359 52.0148 75.7779 51.6713L84.2648 43.1851C84.4314 43.0185 84.6526 42.9268 84.8877 42.9268C85.1227 42.9268 85.3439 43.0185 85.5098 43.1851C85.6764 43.3518 85.7688 43.5722 85.7688 43.808C85.7688 44.043 85.6764 44.2642 85.5098 44.4301ZM83.5023 42.4219L75.0153 50.9088C74.2521 51.6728 74.2521 52.9156 75.0153 53.6803C75.3973 54.0616 75.8987 54.2522 76.4007 54.2522C76.9028 54.2522 77.4048 54.0616 77.7868 53.6796L86.273 45.1934C86.6434 44.823 86.8471 44.3311 86.8471 43.808C86.8471 43.2841 86.6434 42.7922 86.273 42.4219C85.5331 41.6819 84.2408 41.6819 83.5023 42.4219Z" fill="#3D5224"/>
<path d="M79.8088 55.7016L88.2957 47.2154C88.4623 47.0488 88.6835 46.9571 88.9186 46.9571C89.1536 46.9571 89.374 47.0488 89.5407 47.2154C89.7066 47.3813 89.799 47.6025 89.799 47.8375C89.799 48.0725 89.7066 48.2937 89.5407 48.4604L81.0538 56.9466C80.7205 57.2798 80.142 57.2798 79.8088 56.9466C79.6436 56.7799 79.5512 56.5594 79.5512 56.3244C79.5512 56.0887 79.6436 55.8675 79.8088 55.7016ZM78.4722 56.3244C78.4722 56.8476 78.6759 57.3395 79.0462 57.7091C79.4151 58.0795 79.9077 58.2832 80.4316 58.2832C80.9548 58.2832 81.4474 58.0795 81.817 57.7091L90.3032 49.2229C90.6736 48.8525 90.8773 48.3607 90.8773 47.8375C90.8773 47.3144 90.6736 46.8218 90.3032 46.4521C89.5647 45.7121 88.2717 45.7121 87.5332 46.4521L79.0462 54.9391C78.6759 55.3087 78.4722 55.8005 78.4722 56.3244Z" fill="#3D5224"/>
<path d="M26.5384 43.5493C26.6112 44.0987 26.7487 44.683 26.9655 45.3022C27.7041 47.405 29.2095 49.6613 31.2032 51.6542C34.4127 54.8645 44.3229 62.909 49.7043 65.7875L49.5493 65.9425C43.4148 64.3177 32.5114 56.8225 29.2735 53.5839C27.4261 51.7365 26.3027 49.3928 26.1091 46.9837C26.0102 45.762 26.163 44.6 26.5384 43.5493ZM33.5323 38.8016C33.7724 38.8016 34.0154 38.8118 34.2614 38.8314C36.6698 39.025 39.0142 40.1492 40.8608 41.9966C44.0995 45.2345 51.5947 56.1364 53.2202 62.2724L53.0652 62.4274C50.186 57.0452 42.1415 47.135 38.9319 43.9255C36.9383 41.9318 34.6819 40.4271 32.5791 39.6886C31.9635 39.4718 31.3822 39.3349 30.835 39.2622C31.6725 38.9639 32.5784 38.8016 33.5323 38.8016ZM72.2343 81.2021C72.2597 82.2418 71.8617 83.2132 71.113 83.9372C70.4145 84.611 69.4962 84.9595 68.4739 84.9173C67.4036 84.8729 66.3828 84.3832 65.6755 83.5741L50.6313 66.387L50.99 66.0276H50.9907L53.3053 63.713C53.306 63.7123 53.306 63.7123 53.306 63.7116L53.771 63.2474L70.982 78.5274C71.7642 79.212 72.2095 80.1616 72.2343 81.2021ZM27.8765 41.3621L51.0038 64.4887L50.5025 64.99C45.2964 62.3153 35.1978 54.1238 31.9657 50.8917C30.0841 49.0094 28.6696 46.8978 27.9835 44.9442C27.4574 43.4482 27.4312 42.1858 27.8765 41.3621ZM51.7657 63.7254L28.6391 40.5988C29.0196 40.3929 29.4882 40.2831 30.0375 40.2831C30.6771 40.2831 31.4171 40.4235 32.2218 40.7065C34.1748 41.3927 36.287 42.8064 38.1694 44.6888C41.4007 47.9201 49.5923 58.018 52.267 63.2248L51.7657 63.7254ZM49.5886 67.0652C49.6308 67.0754 49.6723 67.0805 49.7145 67.0805C49.7407 67.0805 49.764 67.0688 49.7902 67.0652L64.8628 84.2857C65.765 85.3146 67.0645 85.9381 68.4296 85.9956C68.4994 85.9985 68.5693 86 68.6384 86C69.8601 86 70.9973 85.5474 71.8624 84.7136C72.8171 83.7909 73.3461 82.5009 73.314 81.1752C73.2806 79.8494 72.6898 78.5885 71.6951 77.7175L54.3421 62.3109C52.8454 56.0672 44.9864 44.5949 41.6241 41.2333C39.5962 39.2047 37.011 37.97 34.3479 37.756C31.6463 37.5348 29.1949 38.3905 27.4312 40.1543C25.6682 41.9173 24.8169 44.373 25.033 47.0703C25.2476 49.7341 26.4824 52.3186 28.5103 54.3472C31.8733 57.7088 43.3457 65.5678 49.5886 67.0652Z" fill="#3D5224"/>
</g>
<defs>
<clipPath id="clip0_100_3395">
<rect width="120" height="120" fill="white"/>
</clipPath>
</defs>
</svg>
