<svg width="48" height="48" viewBox="0 0 48 48" fill="none" xmlns="http://www.w3.org/2000/svg">
<path d="M24.0011 12C20.7421 12 20.3331 12.0143 19.0531 12.0725C17.7756 12.131 16.9036 12.3333 16.1405 12.63C15.3513 12.9365 14.6818 13.3465 14.0148 14.0138C13.3473 14.6808 12.9373 15.3503 12.6298 16.1393C12.3323 16.9026 12.1298 17.7748 12.0723 19.0518C12.015 20.3318 12 20.7411 12 24.0001C12 27.2592 12.0145 27.6669 12.0725 28.9469C12.1313 30.2244 12.3335 31.0965 12.63 31.8595C12.9368 32.6487 13.3468 33.3182 14.014 33.9852C14.6808 34.6527 15.3503 35.0638 16.139 35.3703C16.9026 35.667 17.7748 35.8693 19.0521 35.9278C20.3321 35.986 20.7408 36.0003 23.9996 36.0003C27.2589 36.0003 27.6667 35.986 28.9467 35.9278C30.2242 35.8693 31.0972 35.667 31.8607 35.3703C32.6497 35.0638 33.3182 34.6527 33.985 33.9852C34.6525 33.3182 35.0625 32.6487 35.37 31.8597C35.665 31.0965 35.8675 30.2242 35.9275 28.9472C35.985 27.6672 36 27.2592 36 24.0001C36 20.7411 35.985 20.3321 35.9275 19.0521C35.8675 17.7746 35.665 16.9026 35.37 16.1395C35.0625 15.3503 34.6525 14.6808 33.985 14.0138C33.3175 13.3463 32.65 12.9363 31.86 12.63C31.0949 12.3333 30.2224 12.131 28.9449 12.0725C27.6649 12.0143 27.2574 12 23.9974 12H24.0011ZM22.9246 14.1625C23.2441 14.162 23.6006 14.1625 24.0011 14.1625C27.2052 14.1625 27.5849 14.174 28.8502 14.2315C30.0202 14.285 30.6552 14.4805 31.0782 14.6448C31.6382 14.8623 32.0375 15.1223 32.4572 15.5423C32.8772 15.9623 33.1372 16.3623 33.3552 16.9223C33.5195 17.3448 33.7152 17.9798 33.7685 19.1498C33.826 20.4148 33.8385 20.7948 33.8385 23.9974C33.8385 27.1999 33.826 27.5799 33.7685 28.8449C33.715 30.0149 33.5195 30.65 33.3552 31.0725C33.1377 31.6325 32.8772 32.0312 32.4572 32.451C32.0372 32.871 31.6385 33.131 31.0782 33.3485C30.6557 33.5135 30.0202 33.7085 28.8502 33.762C27.5852 33.8195 27.2052 33.832 24.0011 33.832C20.7968 33.832 20.4171 33.8195 19.1521 33.762C17.9821 33.708 17.3471 33.5125 16.9238 33.3482C16.3638 33.1307 15.9638 32.8707 15.5438 32.4507C15.1238 32.0307 14.8638 31.6317 14.6458 31.0715C14.4815 30.649 14.2858 30.0139 14.2325 28.8439C14.175 27.5789 14.1635 27.1989 14.1635 23.9944C14.1635 20.7898 14.175 20.4118 14.2325 19.1468C14.286 17.9768 14.4815 17.3418 14.6458 16.9188C14.8633 16.3588 15.1238 15.9588 15.5438 15.5388C15.9638 15.1188 16.3638 14.8588 16.9238 14.6408C17.3468 14.4758 17.9821 14.2808 19.1521 14.227C20.2591 14.177 20.6881 14.162 22.9246 14.1595V14.1625ZM30.4067 16.155C29.6117 16.155 28.9667 16.7993 28.9667 17.5946C28.9667 18.3896 29.6117 19.0346 30.4067 19.0346C31.2017 19.0346 31.8467 18.3896 31.8467 17.5946C31.8467 16.7996 31.2017 16.1545 30.4067 16.1545V16.155ZM24.0011 17.8376C20.5978 17.8376 17.8386 20.5968 17.8386 24.0001C17.8386 27.4034 20.5978 30.1614 24.0011 30.1614C27.4044 30.1614 30.1627 27.4034 30.1627 24.0001C30.1627 20.5968 27.4044 17.8376 24.0011 17.8376ZM24.0011 20.0001C26.2101 20.0001 28.0012 21.7909 28.0012 24.0001C28.0012 26.2092 26.2101 28.0002 24.0011 28.0002C21.7919 28.0002 20.0011 26.2092 20.0011 24.0001C20.0011 21.7909 21.7919 20.0001 24.0011 20.0001Z" fill="#1D1D1D"/>
</svg>
