<svg width="48" height="48" viewBox="0 0 48 48" fill="none" xmlns="http://www.w3.org/2000/svg">
<path d="M32.5025 15.4921C31.3968 14.3808 30.0798 13.4997 28.6283 12.9001C27.1768 12.3006 25.6198 11.9946 24.0482 12.0001C17.4633 12.0001 12.0965 17.3401 12.0965 23.892C12.0965 25.992 12.6513 28.032 13.6884 29.832L12 36L18.3317 34.344C20.0804 35.292 22.0462 35.796 24.0482 35.796C30.6332 35.796 36 30.456 36 23.904C36 20.724 34.7578 17.7361 32.5025 15.4921ZM24.0482 33.78C22.2633 33.78 20.5146 33.3 18.9829 32.4L18.6211 32.184L14.8583 33.168L15.8593 29.52L15.6181 29.148C14.6264 27.5724 14.0999 25.7511 14.0985 23.892C14.0985 18.4441 18.5608 14.0041 24.0362 14.0041C26.6894 14.0041 29.1859 15.0361 31.0553 16.9081C31.9809 17.8248 32.7144 18.9152 33.2133 20.1162C33.7123 21.3171 33.9667 22.6046 33.9618 23.904C33.9859 29.352 29.5236 33.78 24.0482 33.78ZM29.4995 26.388C29.198 26.244 27.7266 25.524 27.4613 25.416C27.1839 25.32 26.991 25.272 26.7859 25.56C26.5809 25.86 26.0141 26.532 25.8452 26.724C25.6764 26.928 25.4955 26.952 25.194 26.796C24.8925 26.652 23.9276 26.328 22.794 25.32C21.9015 24.528 21.3106 23.556 21.1296 23.256C20.9608 22.956 21.1055 22.8 21.2623 22.644C21.395 22.512 21.5638 22.296 21.7085 22.128C21.8533 21.96 21.9136 21.828 22.01 21.636C22.1065 21.432 22.0583 21.264 21.9859 21.12C21.9136 20.976 21.3106 19.512 21.0693 18.9121C20.8281 18.3361 20.5749 18.4081 20.394 18.3961H19.8151C19.61 18.3961 19.2965 18.4681 19.0191 18.7681C18.7538 19.0681 17.9819 19.788 17.9819 21.252C17.9819 22.716 19.0553 24.132 19.2 24.324C19.3447 24.528 21.3106 27.528 24.3015 28.812C25.0131 29.124 25.5678 29.304 26.002 29.436C26.7136 29.664 27.3648 29.628 27.8834 29.556C28.4623 29.472 29.6563 28.836 29.8975 28.14C30.1508 27.444 30.1508 26.856 30.0663 26.724C29.9819 26.592 29.801 26.532 29.4995 26.388Z" fill="#1D1D1D"/>
</svg>
