<svg width="74" height="74" viewBox="0 0 74 74" fill="none" xmlns="http://www.w3.org/2000/svg">
<circle opacity="0.52" cx="37" cy="37" r="37" fill="#6A6B68"/>
<circle cx="37" cy="37" r="27" fill="#3D5224"/>
<path d="M45.25 33.511C46.134 33.795 46.75 34.639 46.75 35.608V39.894C46.75 41.03 45.903 41.994 44.77 42.087C44.43 42.114 44.09 42.139 43.75 42.159V45.25L40.75 42.25C39.4083 42.2502 38.0672 42.1958 36.73 42.087C36.4413 42.0637 36.1605 41.9813 35.905 41.845M45.25 33.511C45.0955 33.4613 44.9358 33.4294 44.774 33.416C42.0959 33.1937 39.4041 33.1937 36.726 33.416C35.595 33.51 34.75 34.473 34.75 35.608V39.894C34.75 40.731 35.21 41.474 35.905 41.845M45.25 33.511V31.637C45.25 30.016 44.098 28.611 42.49 28.402C40.4208 28.1338 38.3365 27.9995 36.25 28C34.135 28 32.052 28.137 30.01 28.402C28.402 28.611 27.25 30.016 27.25 31.637V37.863C27.25 39.484 28.402 40.889 30.01 41.098C30.587 41.173 31.167 41.238 31.75 41.292V46L35.905 41.845" stroke="white" stroke-width="1.5" stroke-linecap="round" stroke-linejoin="round"/>
</svg>
