<svg width="48" height="48" viewBox="0 0 48 48" fill="none" xmlns="http://www.w3.org/2000/svg">
<path d="M24 12C17.376 12 12 17.376 12 24C12 30.624 17.376 36 24 36C30.624 36 36 30.624 36 24C36 17.376 30.624 12 24 12ZM29.568 20.16C29.388 22.056 28.608 26.664 28.212 28.788C28.044 29.688 27.708 29.988 27.396 30.024C26.7 30.084 26.172 29.568 25.5 29.124C24.444 28.428 23.844 27.996 22.824 27.324C21.636 26.544 22.404 26.112 23.088 25.416C23.268 25.236 26.34 22.44 26.4 22.188C26.4083 22.1498 26.4072 22.1102 26.3968 22.0726C26.3863 22.0349 26.3668 22.0004 26.34 21.972C26.268 21.912 26.172 21.936 26.088 21.948C25.98 21.972 24.3 23.088 21.024 25.296C20.544 25.62 20.112 25.788 19.728 25.776C19.296 25.764 18.48 25.536 17.868 25.332C17.112 25.092 16.524 24.96 16.572 24.54C16.596 24.324 16.896 24.108 17.46 23.88C20.964 22.356 23.292 21.348 24.456 20.868C27.792 19.476 28.476 19.236 28.932 19.236C29.028 19.236 29.256 19.26 29.4 19.38C29.52 19.476 29.556 19.608 29.568 19.704C29.556 19.776 29.58 19.992 29.568 20.16Z" fill="#1D1D1D"/>
</svg>
