<svg width="120" height="120" viewBox="0 0 120 120" fill="none" xmlns="http://www.w3.org/2000/svg">
<g clip-path="url(#clip0_100_3445)">
<path d="M57.1278 0.234584C56.8087 0.745223 57.4682 0.872882 60.1278 0.809053C62.4044 0.745223 62.8725 0.681393 62.8725 0.426074C62.8725 0.170755 62.3831 0.106925 60.064 0.0430951C58.1704 0.000541866 57.2129 0.0643717 57.1278 0.234584Z" fill="#3D5224"/>
<path d="M49.681 0.744887C48.9789 0.9151 48.1704 1.04276 47.8725 1.06404C47.2129 1.06404 46.6172 1.85127 47.1278 2.04276C47.4044 2.14914 51.7023 1.61723 52.5108 1.36191C52.681 1.31936 52.7661 1.10659 52.7236 0.9151C52.6385 0.425738 51.4044 0.361908 49.681 0.744887Z" fill="#3D5224"/>
<path d="M67.2976 0.765583C67.1061 1.27622 67.404 1.40388 69.3614 1.68048C73.2338 2.25495 73.021 2.25495 72.9359 1.68048C72.8721 1.23367 72.6806 1.14856 70.8508 0.829413C68.2338 0.340051 67.4678 0.340051 67.2976 0.765583Z" fill="#3D5224"/>
<path d="M39.7446 3.36136C37.7234 4.04221 37.4468 4.19114 37.4468 4.61668C37.4468 5.27625 37.7659 5.25497 40.5319 4.27625C42.3829 3.61668 42.8723 3.36136 42.8723 3.06349C42.8723 2.44646 42.234 2.51029 39.7446 3.36136Z" fill="#3D5224"/>
<path d="M77.1065 2.78772C77.0426 2.91538 77.0852 3.12815 77.2129 3.25581C77.4895 3.5324 81.1065 4.8941 81.9788 5.04304C82.532 5.14942 82.5746 5.10687 82.5107 4.66006C82.4682 4.23453 82.1065 4.04304 80.3192 3.36219C78.0852 2.5324 77.3618 2.40474 77.1065 2.78772Z" fill="#3D5224"/>
<path d="M30.6381 7.55425C29.5318 8.19255 28.5318 8.74574 28.4467 8.7883C28.1913 8.8734 28.5105 9.57553 28.8084 9.57553C28.936 9.59681 30.0637 9.08617 31.319 8.46915C33.1701 7.55425 33.5956 7.25638 33.5956 6.85213C33.6169 6.08617 32.8722 6.27766 30.6381 7.55425Z" fill="#3D5224"/>
<path d="M86.4043 6.85213C86.4043 7.25638 86.8298 7.55425 88.6809 8.46915C89.9362 9.08617 91.0851 9.59681 91.234 9.57553C91.3617 9.57553 91.4894 9.38404 91.4894 9.17127C91.4894 8.85213 90.9149 8.42659 89.4043 7.57553C87.1064 6.25638 86.383 6.08617 86.4043 6.85213Z" fill="#3D5224"/>
<path d="M22.6597 12.8949C21.8512 13.5545 20.9576 14.2566 20.681 14.4694C20.1703 14.8736 20.2342 15.5332 20.7661 15.5332C21.2767 15.5332 24.8937 12.5119 24.8937 12.0864C24.8937 11.4055 24.1916 11.6609 22.6597 12.8949Z" fill="#3D5224"/>
<path d="M95.1064 12.0864C95.1064 12.5332 98.7235 15.5332 99.2554 15.5332C100.064 15.5332 99.4894 14.6396 97.7873 13.2141C96.0213 11.7034 95.1064 11.3204 95.1064 12.0864Z" fill="#3D5224"/>
<path d="M14.9574 20.3194C14.0425 21.3194 13.2979 22.2556 13.2979 22.4046C13.2979 22.5535 13.4893 22.6812 13.7447 22.7237C14.0851 22.7663 14.5744 22.3407 15.7234 20.979C16.5532 19.979 17.234 19.0216 17.234 18.8514C17.234 18.1492 16.5532 18.5748 14.9574 20.3194Z" fill="#3D5224"/>
<path d="M102.766 18.9572C102.766 19.4466 105.872 22.9785 106.319 22.9785C106.958 22.9785 106.511 21.9998 105.085 20.2977C103.553 18.4892 102.766 18.0423 102.766 18.9572Z" fill="#3D5224"/>
<path d="M9.93612 26.8516C7.87229 29.5962 7.12761 31.2771 7.97867 31.2771C8.34038 31.2771 11.0638 27.1494 11.0638 26.5962C11.0638 25.958 10.5106 26.0856 9.93612 26.8516Z" fill="#3D5224"/>
<path d="M108.936 26.7026C108.936 27.192 111.702 31.2771 112.042 31.2771C112.574 31.2771 112.362 30.6388 111.149 28.4899C110.149 26.7452 109.872 26.3835 109.447 26.3835C109.149 26.3835 108.936 26.5111 108.936 26.7026Z" fill="#3D5224"/>
<path d="M5.12797 35.4676C4.5535 36.574 3.21308 40.0634 3.31946 40.2336C3.51095 40.574 4.25563 40.4463 4.40456 40.0421C4.46839 39.8506 4.85137 38.8719 5.25563 37.8719C6.27691 35.4038 6.31946 35.1059 5.78754 35.1059C5.53222 35.1059 5.25563 35.2761 5.12797 35.4676Z" fill="#3D5224"/>
<path d="M114.042 35.49C114.042 35.724 114.383 36.8091 114.787 37.873C115.191 38.9368 115.532 39.9581 115.532 40.107C115.532 40.3623 115.979 40.6389 116.404 40.6389C116.808 40.6389 116.532 39.4049 115.681 37.341C115.085 35.9581 114.66 35.1921 114.404 35.1496C114.17 35.107 114.042 35.2134 114.042 35.49Z" fill="#3D5224"/>
<path d="M1.95725 44.7461C1.553 45.2355 0.659382 49.8738 0.935978 50.044C1.51045 50.4482 1.76577 50.0653 2.17002 48.1929C2.80832 45.1716 2.87215 44.4695 2.51045 44.4695C2.31896 44.4695 2.08491 44.5972 1.95725 44.7461Z" fill="#3D5224"/>
<path d="M117.32 44.979C117.256 45.1492 117.405 46.1704 117.639 47.2343C117.894 48.3194 118.085 49.4045 118.085 49.6811C118.085 50.1704 118.596 50.5321 118.958 50.2981C119.532 49.9577 118.49 44.8513 117.809 44.7236C117.617 44.6811 117.383 44.7875 117.32 44.979Z" fill="#3D5224"/>
<path d="M0.255351 54.7236C-0.0637976 55.0427 -0.106351 60.1278 0.212798 60.3193C0.340458 60.4044 0.595777 60.3406 0.76599 60.1916C1.02131 59.9789 1.06386 59.4257 1.02131 57.2767C0.957479 54.6597 0.808543 54.1704 0.255351 54.7236Z" fill="#3D5224"/>
<path d="M119.085 54.6167C119 54.6805 118.937 55.9784 118.937 57.4465C118.937 59.5741 119 60.2124 119.256 60.4252C119.426 60.5528 119.66 60.6167 119.788 60.5316C120.107 60.3401 120.064 55.0422 119.745 54.7231C119.447 54.4252 119.277 54.4039 119.085 54.6167Z" fill="#3D5224"/>
<path d="M0.29819 64.9997C0.0641477 65.5742 0.659892 69.9571 1.00032 70.2337C1.61734 70.7444 1.76628 70.1486 1.51096 68.255C1.3833 67.2976 1.25564 66.1061 1.21308 65.638C1.19181 65.021 1.06415 64.7656 0.787552 64.7231C0.596063 64.6805 0.36202 64.8082 0.29819 64.9997Z" fill="#3D5224"/>
<path d="M118.83 65.1494C118.787 65.2983 118.639 66.3834 118.511 67.5536C118.383 68.7238 118.234 69.8302 118.17 70.0217C118.043 70.4472 118.681 70.7238 119.043 70.4259C119.341 70.1706 119.915 65.7451 119.724 65.2345C119.553 64.8302 118.958 64.7877 118.83 65.1494Z" fill="#3D5224"/>
<path d="M1.91504 75.0427C1.91504 75.3831 2.21291 76.6597 2.57461 77.915C3.1278 79.7874 3.31929 80.2129 3.65972 80.2129C3.87249 80.2129 4.10653 80.064 4.19163 79.8725C4.31929 79.532 3.08525 75.2129 2.70227 74.7235C2.34057 74.2554 1.91504 74.4257 1.91504 75.0427Z" fill="#3D5224"/>
<path d="M117.298 74.9364C116.957 75.4896 115.595 79.8939 115.681 80.1492C115.744 80.2981 115.915 80.4258 116.064 80.4258C116.51 80.4258 116.723 80.0002 117.51 77.5534C118.042 75.8726 118.191 75.1492 118.042 74.9577C117.766 74.6173 117.51 74.6173 117.298 74.9364Z" fill="#3D5224"/>
<path d="M5.31934 84.5954C5.31934 85.4252 7.46827 89.3613 7.93636 89.3613C8.55338 89.3613 8.34061 88.5315 7.1704 86.2762C6.02146 84.0847 5.31934 83.4252 5.31934 84.5954Z" fill="#3D5224"/>
<path d="M112.66 86.5956C111.532 88.8722 111.362 89.6594 112.107 89.5318C112.511 89.4466 114.66 85.4466 114.681 84.7232C114.681 84.4041 114.553 84.2552 114.255 84.2552C113.936 84.2552 113.575 84.7871 112.66 86.5956Z" fill="#3D5224"/>
<path d="M10.2341 93.4479C10.2553 94.1501 12.7873 97.5331 13.3617 97.6182C14.1915 97.7458 13.8936 96.916 12.4256 94.8948C10.9787 92.9586 10.1915 92.4267 10.2341 93.4479Z" fill="#3D5224"/>
<path d="M108.277 93.9793C108 94.4048 107.341 95.3197 106.766 95.9793C105.787 97.1708 105.596 97.8729 106.277 97.8729C106.83 97.8729 109.575 94.2772 109.575 93.5751C109.575 92.8942 108.787 93.1495 108.277 93.9793Z" fill="#3D5224"/>
<path d="M16.5957 101.235C16.5957 101.788 19.8085 104.895 20.3829 104.895C20.6383 104.895 20.851 104.767 20.851 104.618C20.851 104.214 17.3829 100.852 16.9574 100.852C16.7446 100.852 16.5957 101.022 16.5957 101.235Z" fill="#3D5224"/>
<path d="M100.49 102.788C98.7449 104.49 98.4683 105.107 99.447 105.107C100 105.107 103.192 101.98 103.192 101.427C103.192 100.597 102.234 101.086 100.49 102.788Z" fill="#3D5224"/>
<path d="M24.2554 107.852C24.2554 108.469 27.766 111.064 28.5958 111.064C29.4469 111.064 28.8298 110.235 26.9149 108.873C24.8086 107.384 24.2554 107.171 24.2554 107.852Z" fill="#3D5224"/>
<path d="M94.1701 108.191C93.8297 108.468 92.8935 109.064 92.1063 109.51C91.2978 109.957 90.6382 110.361 90.6382 110.425C90.6382 110.489 90.7446 110.681 90.8509 110.851C91.1275 111.276 91.8722 110.978 94.0424 109.553C95.1275 108.829 95.7446 108.276 95.7446 108.042C95.7446 107.489 94.9148 107.574 94.1701 108.191Z" fill="#3D5224"/>
<path d="M32.7661 113.235C32.7661 113.66 33.1065 113.873 34.9576 114.618C37.3406 115.618 38.1704 115.767 38.0427 115.171C37.9789 114.852 33.681 112.767 33.0427 112.767C32.8938 112.767 32.7661 112.979 32.7661 113.235Z" fill="#3D5224"/>
<path d="M83.8936 113.915C82.0426 114.66 81.7234 114.852 81.7021 115.256C81.7021 116.001 82.4681 115.873 84.8936 114.767C86.4681 114.022 87.0213 113.66 87.0213 113.384C87.0213 112.788 86.3617 112.894 83.8936 113.915Z" fill="#3D5224"/>
<path d="M42.1704 116.957C42.2555 117.425 45.3619 118.532 46.681 118.574C47.4257 118.617 47.5534 118.553 47.5534 118.191C47.5534 117.83 47.2129 117.681 45.4257 117.191C42.8087 116.511 42.064 116.447 42.1704 116.957Z" fill="#3D5224"/>
<path d="M74.3194 117.193C72.5322 117.639 72.1279 117.81 72.1279 118.129C72.1279 118.788 72.6598 118.788 75.213 118.171C77.4471 117.618 77.6598 117.533 77.6598 117.086C77.6598 116.448 77.1705 116.469 74.3194 117.193Z" fill="#3D5224"/>
<path d="M51.915 119C51.915 119.596 52.4682 119.745 55.0214 119.894C56.9576 120.021 57.6384 119.979 57.7661 119.787C58.1065 119.213 57.3406 118.979 54.6384 118.83C52.3193 118.724 51.915 118.745 51.915 119Z" fill="#3D5224"/>
<path d="M63.936 118.915C62.3403 119.043 62.2339 119.086 62.1701 119.554L62.085 120.064L64.7233 119.915C67.2977 119.766 68.1275 119.511 67.7871 118.958C67.6382 118.724 66.9147 118.703 63.936 118.915Z" fill="#3D5224"/>
<path d="M32.6644 95.0019C29.6437 95.0019 26.805 93.1922 25.4312 90.3911C23.7454 86.9545 24.67 82.8413 27.6776 80.3887L28.5892 79.6432L28.0322 79.1475C24.2838 75.8134 23.5133 72.1605 25.7468 68.2878C27.336 65.5333 29.6066 64.1355 32.4991 64.1355C33.7727 64.1355 35.18 64.4039 36.6838 64.9332L37.5824 65.25L37.523 64.2958C37.4914 63.7851 37.4506 63.2726 37.4116 62.7787C37.3243 61.6792 37.2426 60.6411 37.2482 59.5918C37.2631 56.4609 38.093 53.2945 39.7843 49.9119C40.3524 48.775 41.0282 47.6549 41.6817 46.5721C41.8265 46.3317 41.9732 46.0895 42.118 45.8472C42.3463 45.4651 42.5988 45.2713 42.868 45.2713C42.9312 45.2713 42.9961 45.2806 43.0648 45.3011C43.347 45.3831 43.5568 45.5024 43.6756 46.3168C43.8743 47.6904 44.1249 49.3155 44.4907 50.9481C44.6392 51.6116 45.0161 52.2023 45.3484 52.7242L45.4078 52.8174C45.8757 53.5535 46.6053 54.0064 47.5187 54.1275C47.6895 54.1499 47.8566 54.1611 48.0144 54.1611C49.2899 54.1611 50.0919 53.3858 50.1606 52.0868C50.2405 50.5586 50.1885 49.2447 49.9973 48.0687C49.483 44.8874 50.1495 41.9726 51.9782 39.4063C52.9269 38.0719 54.0074 36.7822 55.049 35.5354C55.4277 35.0825 55.8065 34.6297 56.1796 34.1749C57.5201 32.5405 58.9923 30.5911 59.5196 28.1142C59.6477 27.5141 59.6978 26.9065 59.7461 26.3195C59.7572 26.1778 59.7684 26.0381 59.7814 25.8983C59.8296 25.3634 60.0487 25.1882 60.2789 25.0783C60.3903 25.0242 60.4924 25 60.5908 25C60.7412 25 60.8935 25.0615 61.0531 25.1864C65.7354 28.8597 68.8581 33.0306 70.6014 37.9396C71.3571 40.0679 71.487 42.3211 70.9987 44.8277C70.8354 45.6645 70.8521 46.5162 70.8669 47.34V47.463C70.8892 48.6334 71.3236 49.3956 72.1554 49.7274C72.549 49.8839 72.9463 49.9641 73.3306 49.9641C73.9841 49.9641 74.5745 49.733 75.0405 49.2931C75.7646 48.611 76.2101 47.9755 76.4032 47.3493C76.7504 46.2199 76.9862 45.0514 77.2145 43.922C77.2795 43.6033 77.3426 43.2846 77.4095 42.9678C77.4633 42.7106 77.4633 42.4646 77.4633 42.2447C77.4633 42.1273 77.4633 42.0154 77.4726 41.9148C77.5246 41.3054 77.8179 41.1544 78.0686 41.0911C78.1502 41.0706 78.2301 41.0594 78.3025 41.0594C78.4009 41.0594 78.7035 41.0594 78.9578 41.5048C79.1881 41.9092 79.4238 42.3099 79.6578 42.7106C80.3206 43.8437 81.0075 45.0141 81.5663 46.2069C83.3022 49.9044 84.0857 53.5982 83.8945 57.184C83.8221 58.5258 83.5677 59.8994 83.3208 61.23C83.2112 61.8171 83.0998 62.4228 83.0033 63.0248C82.9829 63.1496 82.9439 63.2857 82.8938 63.4571C82.8659 63.5559 82.8344 63.6621 82.8028 63.7814L82.5466 64.7524L83.5306 64.566C83.7292 64.5287 83.9205 64.4915 84.1061 64.4542C84.4811 64.3797 84.8339 64.3107 85.1811 64.2567C85.5877 64.1952 85.9998 64.1635 86.4083 64.1635C90.333 64.1635 93.6841 67.0019 94.3748 70.9156C94.4026 71.0721 94.4565 71.2045 94.4992 71.3088V73.4148C94.4528 73.5043 94.4008 73.6179 94.3766 73.7614C94.0146 75.7873 93.0492 77.4273 91.4266 78.7748C91.33 78.8549 91.2465 78.9369 91.1573 79.0226C91.1184 79.0618 91.0757 79.1028 91.0292 79.1456L90.4816 79.6619L91.0812 80.1147C92.6185 81.274 93.6247 82.6922 94.1538 84.4515C94.2411 84.7441 94.3228 85.0386 94.4045 85.3349C94.436 85.4486 94.4658 85.5604 94.4973 85.6741V87.8807C94.4676 87.9963 94.4379 88.1118 94.4082 88.2274C94.3302 88.5349 94.256 88.8256 94.1687 89.1145C93.1142 92.6238 89.9729 94.9795 86.3507 94.9795C85.5969 94.9795 84.8339 94.877 84.0857 94.6757C81.4661 93.9712 78.8465 93.2668 76.225 92.5623C71.0155 91.1608 65.6277 89.7109 60.3253 88.2945C60.0858 88.2311 59.8278 88.1975 59.5623 88.1975C59.2968 88.1975 59.0313 88.2311 58.7918 88.2945C55.7897 89.094 52.7394 89.9159 49.7912 90.7098C44.8249 92.0479 39.6896 93.4308 34.6305 94.7484C33.9844 94.9161 33.3216 95.0019 32.6606 95.0019H32.6644ZM87.9845 80.5136C87.784 80.5136 87.5909 80.5359 87.4108 80.5807C85.6266 81.0224 83.978 81.4622 82.3739 81.93C81.9042 82.066 81.4252 82.3922 81.1208 82.7798C79.3682 85.02 79.2995 88.2441 80.9537 90.6166C82.1901 92.3908 84.2119 93.4494 86.3618 93.4494C87.0339 93.4494 87.7023 93.345 88.3447 93.1419C91.0701 92.2753 92.9749 89.6736 92.9786 86.8147C92.9824 84.1459 91.2855 81.6187 88.8496 80.6683C88.5897 80.5676 88.2889 80.5136 87.9826 80.5136H87.9845ZM32.7405 80.1744C29.1109 80.1744 26.1478 83.1358 26.1329 86.7737C26.1255 88.5367 26.8125 90.2029 28.0656 91.4683C29.3262 92.7412 30.9953 93.4438 32.7665 93.4475C36.3979 93.4475 39.3461 90.475 39.3517 86.8221C39.3554 85.0274 38.6741 83.3538 37.4357 82.107C36.1974 80.8602 34.5302 80.1744 32.7423 80.1725H32.7386L32.7405 80.1744ZM64.6716 86.6936L64.705 87.8285L65.158 87.9665L79.771 91.9081L79.1528 90.652C78.0908 88.4957 77.946 86.3562 78.6905 83.9204L79.0265 82.8245L64.6697 86.6954L64.6716 86.6936ZM86.399 65.7327C85.7269 65.7327 85.0344 65.8277 84.3437 66.0122C69.8514 69.9129 55.3609 73.8174 40.8704 77.7218C40.0795 77.9342 39.2923 78.1542 38.4828 78.3815C38.0985 78.4896 37.7105 78.5977 37.3151 78.7077L36.0173 79.0674L37.122 79.8389C40.6959 82.3325 41.8432 86.6749 39.9774 90.6427L39.4037 91.8634L41.0635 91.4348C41.2825 91.3789 41.4738 91.3304 41.665 91.2782L49.6668 89.1238C58.8178 86.66 67.967 84.1962 77.1161 81.7287C78.0611 81.4734 79.0061 81.2218 79.953 80.9702C82.7118 80.234 85.5635 79.4736 88.3539 78.6573C91.3374 77.7851 93.3852 74.6169 92.9192 71.5958C92.3771 68.0884 89.7556 65.7327 86.3953 65.7327H86.399ZM32.6829 65.7085C29.8869 65.7085 27.401 67.5274 26.495 70.2354C25.3866 73.5453 26.9498 77.0676 30.1283 78.4263C30.4272 78.5548 30.7892 78.6238 31.1494 78.6238C31.3759 78.6238 31.5913 78.5977 31.7899 78.5437C35.7463 77.4981 39.7602 76.4153 43.6441 75.3679C44.888 75.0325 46.1319 74.697 47.3758 74.3616C48.8815 73.9553 50.389 73.5527 51.8947 73.1502L54.4697 72.4606L54.4103 71.3554L54.0019 71.2194C53.9573 71.2045 53.9146 71.1896 53.8701 71.1746C53.7605 71.1355 53.6473 71.0964 53.521 71.0628C51.7406 70.5839 49.9601 70.1049 48.1797 69.6241C43.6404 68.3996 38.947 67.1342 34.3204 65.9191C33.782 65.7774 33.2306 65.7066 32.6811 65.7066L32.6829 65.7085ZM60.0599 51.4326L59.9986 52.1222C59.9615 52.5397 59.9299 52.9049 59.8946 53.2702C59.5809 56.3956 58.4502 58.565 56.3356 60.0969C55.4834 60.7138 54.7426 61.463 54.1931 62.0445C52.5389 63.7963 51.9281 65.8836 52.3737 68.2487C52.4591 68.6997 52.6577 69.2439 53.4523 69.4489C54.4976 69.7191 55.5595 70.0061 56.5844 70.2857C57.366 70.4981 58.1476 70.7106 58.9311 70.9175C59.165 70.979 59.3841 71.0106 59.5827 71.0106C59.7312 71.0106 59.8705 70.9939 60.0004 70.9603C62.5477 70.2894 65.0911 69.6017 67.5604 68.9177C67.9373 68.8134 68.3123 68.4742 68.4497 68.1145C69.1366 66.316 69.417 64.6667 69.3093 63.0732C68.9157 57.2585 65.1079 53.82 61.0513 50.9723L60.1583 50.3461L60.0599 51.4364V51.4326ZM41.2807 50.2045C41.1359 50.5642 40.9836 50.9239 40.8332 51.2835C40.4972 52.0812 40.15 52.9068 39.8585 53.7511C38.559 57.5213 38.39 61.0548 39.3406 64.5511C39.5764 65.4177 40.0498 65.8892 40.8759 66.0812C41.9453 66.3291 43.0296 66.6273 44.0785 66.9161C44.5222 67.0373 44.966 67.1603 45.4097 67.2795L50.7139 68.6978V67.8722C50.7139 67.766 50.7139 67.6672 50.7139 67.574C50.7139 67.382 50.7176 67.1994 50.7102 67.0168C50.6378 65.0711 51.1316 63.4329 52.1787 62.1507C53.1107 61.0082 54.2525 59.8639 55.5707 58.7513C57.1005 57.4579 57.9025 56.1328 58.0919 54.5785C58.2887 52.9609 58.337 51.3134 58.3834 49.7199L58.3964 49.2428C58.4149 48.6334 58.712 48.2252 59.1353 48.2252C59.2857 48.2252 59.4472 48.2718 59.618 48.3631C63.0731 50.2045 65.7094 52.3384 67.6755 54.8898C70.1781 58.1344 71.1788 61.4947 70.7351 65.1587C70.6813 65.6041 70.6126 66.0514 70.5402 66.5248C70.5049 66.7577 70.4678 66.9963 70.4306 67.2441L70.2914 68.2002C70.2914 68.2002 72.6325 67.5666 73.3324 67.3783C75.4638 66.8006 77.4782 66.2545 79.5334 65.7178C80.1832 65.5482 80.5842 65.1978 80.8367 64.5809C82.8585 59.631 82.9365 54.4164 81.0632 49.0788C80.8144 48.3725 80.5229 47.6773 80.2389 47.0064C80.1089 46.6989 79.979 46.3895 79.8527 46.0801L79.4573 45.1092L78.7852 45.9124C78.4677 46.2926 78.3526 46.6299 78.2616 46.9002L78.2486 46.9374C77.8792 48.0351 77.3686 49.2801 76.3884 50.2082C75.4731 51.0729 74.439 51.5128 73.312 51.5128C72.8479 51.5128 72.3596 51.4382 71.8583 51.2929C70.4603 50.8866 69.6435 49.8597 69.4337 48.242C69.2926 47.1611 69.3018 45.9534 69.4597 44.6544C69.4801 44.4848 69.5024 44.3152 69.5228 44.1456C69.6973 42.7702 69.8792 41.3482 69.5451 39.8703C68.8656 36.8512 67.332 33.9848 64.7217 30.8501C64.1777 30.1978 63.604 29.5921 62.9969 28.9529C62.7203 28.6603 62.4363 28.3621 62.1503 28.0527L61.3446 27.1805L61.0717 28.3379C60.3513 31.4018 58.5635 33.7351 56.9427 35.6826L56.4748 36.2455C55.2885 37.6675 54.0613 39.1398 52.9771 40.6904C51.5828 42.6864 51.0908 45.0383 51.5104 47.681C51.7554 49.2186 51.9708 50.8549 51.6942 52.4726C51.3414 54.5413 49.9824 55.7284 47.9662 55.7284C47.9272 55.7284 47.8882 55.7284 47.8474 55.7284C46.1486 55.6912 44.8564 54.942 44.0061 53.5069C43.5995 52.8229 43.2746 52.0812 42.9293 51.2947C42.7696 50.9332 42.6063 50.5586 42.4299 50.184L41.8172 48.8719L41.2733 50.2157L41.2807 50.2045Z" fill="#3D5224"/>
</g>
<defs>
<clipPath id="clip0_100_3445">
<rect width="120" height="120" fill="white"/>
</clipPath>
</defs>
</svg>
