<svg width="120" height="120" viewBox="0 0 120 120" fill="none" xmlns="http://www.w3.org/2000/svg">
<g clip-path="url(#clip0_100_3489)">
<path d="M57.1278 0.234584C56.8087 0.745223 57.4682 0.872882 60.1278 0.809053C62.4044 0.745223 62.8725 0.681393 62.8725 0.426074C62.8725 0.170755 62.3831 0.106925 60.064 0.0430951C58.1704 0.000541866 57.2129 0.0643717 57.1278 0.234584Z" fill="#3D5224"/>
<path d="M49.681 0.744887C48.9789 0.9151 48.1704 1.04276 47.8725 1.06404C47.2129 1.06404 46.6172 1.85127 47.1278 2.04276C47.4044 2.14914 51.7023 1.61723 52.5108 1.36191C52.681 1.31936 52.7661 1.10659 52.7236 0.9151C52.6385 0.425738 51.4044 0.361908 49.681 0.744887Z" fill="#3D5224"/>
<path d="M67.2976 0.765583C67.1061 1.27622 67.404 1.40388 69.3614 1.68048C73.2338 2.25495 73.021 2.25495 72.9359 1.68048C72.8721 1.23367 72.6806 1.14856 70.8508 0.829413C68.2338 0.340051 67.4678 0.340051 67.2976 0.765583Z" fill="#3D5224"/>
<path d="M39.7446 3.36136C37.7234 4.04221 37.4468 4.19114 37.4468 4.61668C37.4468 5.27625 37.7659 5.25497 40.5319 4.27625C42.3829 3.61668 42.8723 3.36136 42.8723 3.06349C42.8723 2.44646 42.234 2.51029 39.7446 3.36136Z" fill="#3D5224"/>
<path d="M77.1065 2.78772C77.0426 2.91538 77.0852 3.12815 77.2129 3.25581C77.4895 3.5324 81.1065 4.8941 81.9788 5.04304C82.532 5.14942 82.5746 5.10687 82.5107 4.66006C82.4682 4.23453 82.1065 4.04304 80.3192 3.36219C78.0852 2.5324 77.3618 2.40474 77.1065 2.78772Z" fill="#3D5224"/>
<path d="M30.6381 7.55425C29.5318 8.19255 28.5318 8.74574 28.4467 8.7883C28.1913 8.8734 28.5105 9.57553 28.8084 9.57553C28.936 9.59681 30.0637 9.08617 31.319 8.46915C33.1701 7.55425 33.5956 7.25638 33.5956 6.85213C33.6169 6.08617 32.8722 6.27766 30.6381 7.55425Z" fill="#3D5224"/>
<path d="M86.4043 6.85213C86.4043 7.25638 86.8298 7.55425 88.6809 8.46915C89.9362 9.08617 91.0851 9.59681 91.234 9.57553C91.3617 9.57553 91.4894 9.38404 91.4894 9.17127C91.4894 8.85213 90.9149 8.42659 89.4043 7.57553C87.1064 6.25638 86.383 6.08617 86.4043 6.85213Z" fill="#3D5224"/>
<path d="M22.6597 12.8949C21.8512 13.5545 20.9576 14.2566 20.681 14.4694C20.1703 14.8736 20.2342 15.5332 20.7661 15.5332C21.2767 15.5332 24.8937 12.5119 24.8937 12.0864C24.8937 11.4055 24.1916 11.6609 22.6597 12.8949Z" fill="#3D5224"/>
<path d="M95.1064 12.0864C95.1064 12.5332 98.7235 15.5332 99.2554 15.5332C100.064 15.5332 99.4894 14.6396 97.7873 13.2141C96.0213 11.7034 95.1064 11.3204 95.1064 12.0864Z" fill="#3D5224"/>
<path d="M14.9574 20.3194C14.0425 21.3194 13.2979 22.2556 13.2979 22.4046C13.2979 22.5535 13.4893 22.6812 13.7447 22.7237C14.0851 22.7663 14.5744 22.3407 15.7234 20.979C16.5532 19.979 17.234 19.0216 17.234 18.8514C17.234 18.1492 16.5532 18.5748 14.9574 20.3194Z" fill="#3D5224"/>
<path d="M102.766 18.9572C102.766 19.4466 105.872 22.9785 106.319 22.9785C106.958 22.9785 106.511 21.9998 105.085 20.2977C103.553 18.4892 102.766 18.0423 102.766 18.9572Z" fill="#3D5224"/>
<path d="M9.93612 26.8516C7.87229 29.5962 7.12761 31.2771 7.97867 31.2771C8.34038 31.2771 11.0638 27.1494 11.0638 26.5962C11.0638 25.958 10.5106 26.0856 9.93612 26.8516Z" fill="#3D5224"/>
<path d="M108.936 26.7026C108.936 27.192 111.702 31.2771 112.042 31.2771C112.574 31.2771 112.362 30.6388 111.149 28.4899C110.149 26.7452 109.872 26.3835 109.447 26.3835C109.149 26.3835 108.936 26.5111 108.936 26.7026Z" fill="#3D5224"/>
<path d="M5.12797 35.4676C4.5535 36.574 3.21308 40.0634 3.31946 40.2336C3.51095 40.574 4.25563 40.4463 4.40456 40.0421C4.46839 39.8506 4.85137 38.8719 5.25563 37.8719C6.27691 35.4038 6.31946 35.1059 5.78754 35.1059C5.53222 35.1059 5.25563 35.2761 5.12797 35.4676Z" fill="#3D5224"/>
<path d="M114.042 35.49C114.042 35.724 114.383 36.8091 114.787 37.873C115.191 38.9368 115.532 39.9581 115.532 40.107C115.532 40.3623 115.979 40.6389 116.404 40.6389C116.808 40.6389 116.532 39.4049 115.681 37.341C115.085 35.9581 114.66 35.1921 114.404 35.1496C114.17 35.107 114.042 35.2134 114.042 35.49Z" fill="#3D5224"/>
<path d="M1.95725 44.7461C1.553 45.2355 0.659382 49.8738 0.935978 50.044C1.51045 50.4482 1.76577 50.0653 2.17002 48.1929C2.80832 45.1716 2.87215 44.4695 2.51045 44.4695C2.31896 44.4695 2.08491 44.5972 1.95725 44.7461Z" fill="#3D5224"/>
<path d="M117.32 44.979C117.256 45.1492 117.405 46.1704 117.639 47.2343C117.894 48.3194 118.085 49.4045 118.085 49.6811C118.085 50.1704 118.596 50.5321 118.958 50.2981C119.532 49.9577 118.49 44.8513 117.809 44.7236C117.617 44.6811 117.383 44.7875 117.32 44.979Z" fill="#3D5224"/>
<path d="M0.255351 54.7236C-0.0637976 55.0427 -0.106351 60.1278 0.212798 60.3193C0.340458 60.4044 0.595777 60.3406 0.76599 60.1916C1.02131 59.9789 1.06386 59.4257 1.02131 57.2767C0.957479 54.6597 0.808543 54.1704 0.255351 54.7236Z" fill="#3D5224"/>
<path d="M119.085 54.6167C119 54.6805 118.937 55.9784 118.937 57.4465C118.937 59.5741 119 60.2124 119.256 60.4252C119.426 60.5528 119.66 60.6167 119.788 60.5316C120.107 60.3401 120.064 55.0422 119.745 54.7231C119.447 54.4252 119.277 54.4039 119.085 54.6167Z" fill="#3D5224"/>
<path d="M0.29819 64.9997C0.0641477 65.5742 0.659892 69.9571 1.00032 70.2337C1.61734 70.7444 1.76628 70.1486 1.51096 68.255C1.3833 67.2976 1.25564 66.1061 1.21308 65.638C1.19181 65.021 1.06415 64.7656 0.787552 64.7231C0.596063 64.6805 0.36202 64.8082 0.29819 64.9997Z" fill="#3D5224"/>
<path d="M118.83 65.1494C118.787 65.2983 118.639 66.3834 118.511 67.5536C118.383 68.7238 118.234 69.8302 118.17 70.0217C118.043 70.4472 118.681 70.7238 119.043 70.4259C119.341 70.1706 119.915 65.7451 119.724 65.2345C119.553 64.8302 118.958 64.7877 118.83 65.1494Z" fill="#3D5224"/>
<path d="M1.91504 75.0427C1.91504 75.3831 2.21291 76.6597 2.57461 77.915C3.1278 79.7874 3.31929 80.2129 3.65972 80.2129C3.87249 80.2129 4.10653 80.064 4.19163 79.8725C4.31929 79.532 3.08525 75.2129 2.70227 74.7235C2.34057 74.2554 1.91504 74.4257 1.91504 75.0427Z" fill="#3D5224"/>
<path d="M117.298 74.9364C116.957 75.4896 115.595 79.8939 115.681 80.1492C115.744 80.2981 115.915 80.4258 116.064 80.4258C116.51 80.4258 116.723 80.0002 117.51 77.5534C118.042 75.8726 118.191 75.1492 118.042 74.9577C117.766 74.6173 117.51 74.6173 117.298 74.9364Z" fill="#3D5224"/>
<path d="M5.31934 84.5954C5.31934 85.4252 7.46827 89.3613 7.93636 89.3613C8.55338 89.3613 8.34061 88.5315 7.1704 86.2762C6.02146 84.0847 5.31934 83.4252 5.31934 84.5954Z" fill="#3D5224"/>
<path d="M112.66 86.5956C111.532 88.8722 111.362 89.6594 112.107 89.5318C112.511 89.4466 114.66 85.4466 114.681 84.7232C114.681 84.4041 114.553 84.2552 114.255 84.2552C113.936 84.2552 113.575 84.7871 112.66 86.5956Z" fill="#3D5224"/>
<path d="M10.2341 93.4479C10.2553 94.1501 12.7873 97.5331 13.3617 97.6182C14.1915 97.7458 13.8936 96.916 12.4256 94.8948C10.9787 92.9586 10.1915 92.4267 10.2341 93.4479Z" fill="#3D5224"/>
<path d="M108.277 93.9793C108 94.4048 107.341 95.3197 106.766 95.9793C105.787 97.1708 105.596 97.8729 106.277 97.8729C106.83 97.8729 109.575 94.2772 109.575 93.5751C109.575 92.8942 108.787 93.1495 108.277 93.9793Z" fill="#3D5224"/>
<path d="M16.5957 101.235C16.5957 101.788 19.8085 104.895 20.3829 104.895C20.6383 104.895 20.851 104.767 20.851 104.618C20.851 104.214 17.3829 100.852 16.9574 100.852C16.7446 100.852 16.5957 101.022 16.5957 101.235Z" fill="#3D5224"/>
<path d="M100.49 102.788C98.7449 104.49 98.4683 105.107 99.447 105.107C100 105.107 103.192 101.98 103.192 101.427C103.192 100.597 102.234 101.086 100.49 102.788Z" fill="#3D5224"/>
<path d="M24.2554 107.852C24.2554 108.469 27.766 111.064 28.5958 111.064C29.4469 111.064 28.8298 110.235 26.9149 108.873C24.8086 107.384 24.2554 107.171 24.2554 107.852Z" fill="#3D5224"/>
<path d="M94.1706 108.191C93.8302 108.468 92.894 109.064 92.1068 109.51C91.2982 109.957 90.6387 110.361 90.6387 110.425C90.6387 110.489 90.7451 110.681 90.8514 110.851C91.128 111.276 91.8727 110.978 94.0429 109.553C95.128 108.829 95.7451 108.276 95.7451 108.042C95.7451 107.489 94.9153 107.574 94.1706 108.191Z" fill="#3D5224"/>
<path d="M32.7661 113.235C32.7661 113.66 33.1065 113.873 34.9576 114.618C37.3406 115.618 38.1704 115.767 38.0427 115.171C37.9789 114.852 33.681 112.767 33.0427 112.767C32.8938 112.767 32.7661 112.979 32.7661 113.235Z" fill="#3D5224"/>
<path d="M83.8936 113.915C82.0426 114.66 81.7234 114.852 81.7021 115.256C81.7021 116.001 82.4681 115.873 84.8936 114.767C86.4681 114.022 87.0213 113.66 87.0213 113.384C87.0213 112.788 86.3617 112.894 83.8936 113.915Z" fill="#3D5224"/>
<path d="M42.1704 116.957C42.2555 117.425 45.3619 118.532 46.681 118.574C47.4257 118.617 47.5534 118.553 47.5534 118.191C47.5534 117.83 47.2129 117.681 45.4257 117.191C42.8087 116.511 42.064 116.447 42.1704 116.957Z" fill="#3D5224"/>
<path d="M74.3194 117.193C72.5322 117.639 72.1279 117.81 72.1279 118.129C72.1279 118.788 72.6598 118.788 75.213 118.171C77.4471 117.618 77.6598 117.533 77.6598 117.086C77.6598 116.448 77.1705 116.469 74.3194 117.193Z" fill="#3D5224"/>
<path d="M51.915 119C51.915 119.596 52.4682 119.745 55.0214 119.894C56.9576 120.021 57.6384 119.979 57.7661 119.787C58.1065 119.213 57.3406 118.979 54.6384 118.83C52.3193 118.724 51.915 118.745 51.915 119Z" fill="#3D5224"/>
<path d="M63.936 118.915C62.3403 119.043 62.2339 119.086 62.1701 119.554L62.085 120.064L64.7233 119.915C67.2977 119.766 68.1275 119.511 67.7871 118.958C67.6382 118.724 66.9147 118.703 63.936 118.915Z" fill="#3D5224"/>
<path d="M59.0001 91.8116C60.5804 89.8836 65.3502 83.9587 70.0668 77.058C77.6044 66.033 81.5883 57.5531 81.5883 52.5353C81.5883 40.321 71.4553 30.3854 59.0001 30.3854C46.5447 30.3854 36.4117 40.321 36.4117 52.5353C36.4117 57.5531 40.3958 66.033 47.9332 77.058C52.6498 83.9587 57.4196 89.8836 59.0001 91.8116ZM59.0001 29.0001C65.411 29.0001 71.4377 31.4493 75.9709 35.893C80.5033 40.3386 83 46.2479 83 52.5353C83 55.5174 81.7514 59.534 79.2884 64.4694C77.3425 68.3704 74.6326 72.867 71.2337 77.8378C65.4575 86.2863 59.6035 93.281 59.545 93.3496L59.0001 94.0001L58.455 93.3496C58.3965 93.281 52.5425 86.2863 46.7663 77.8378C43.3674 72.867 40.6575 68.3704 38.7116 64.4694C36.2486 59.5339 35 55.5174 35 52.5353C35 46.2479 37.4967 40.3386 42.0293 35.893C46.5623 31.4492 52.5893 29.0001 59.0001 29.0001Z" fill="#3D5224"/>
<path d="M54.3765 44C61.3113 44 64.5747 48 64.5747 52C64.5747 57 58.9657 59 54.3765 59V71V44Z" stroke="#3D5224" stroke-width="1.5"/>
</g>
<defs>
<clipPath id="clip0_100_3489">
<rect width="120" height="120" fill="white"/>
</clipPath>
</defs>
</svg>
