<svg width="120" height="120" viewBox="0 0 120 120" fill="none" xmlns="http://www.w3.org/2000/svg">
<g clip-path="url(#clip0_100_3538)">
<path d="M57.1278 0.234584C56.8087 0.745223 57.4682 0.872882 60.1278 0.809053C62.4044 0.745223 62.8725 0.681393 62.8725 0.426074C62.8725 0.170755 62.3831 0.106925 60.064 0.0430951C58.1704 0.000541866 57.2129 0.0643717 57.1278 0.234584Z" fill="#3D5224"/>
<path d="M49.681 0.744887C48.9789 0.9151 48.1704 1.04276 47.8725 1.06404C47.2129 1.06404 46.6172 1.85127 47.1278 2.04276C47.4044 2.14914 51.7023 1.61723 52.5108 1.36191C52.681 1.31936 52.7661 1.10659 52.7236 0.9151C52.6385 0.425738 51.4044 0.361908 49.681 0.744887Z" fill="#3D5224"/>
<path d="M67.2976 0.765583C67.1061 1.27622 67.404 1.40388 69.3614 1.68048C73.2338 2.25495 73.021 2.25495 72.9359 1.68048C72.8721 1.23367 72.6806 1.14856 70.8508 0.829413C68.2338 0.340051 67.4678 0.340051 67.2976 0.765583Z" fill="#3D5224"/>
<path d="M39.7446 3.36136C37.7234 4.04221 37.4468 4.19114 37.4468 4.61668C37.4468 5.27625 37.7659 5.25497 40.5319 4.27625C42.3829 3.61668 42.8723 3.36136 42.8723 3.06349C42.8723 2.44646 42.234 2.51029 39.7446 3.36136Z" fill="#3D5224"/>
<path d="M77.1065 2.78772C77.0426 2.91538 77.0852 3.12815 77.2129 3.25581C77.4895 3.5324 81.1065 4.8941 81.9788 5.04304C82.532 5.14942 82.5746 5.10687 82.5107 4.66006C82.4682 4.23453 82.1065 4.04304 80.3192 3.36219C78.0852 2.5324 77.3618 2.40474 77.1065 2.78772Z" fill="#3D5224"/>
<path d="M30.6381 7.55425C29.5318 8.19255 28.5318 8.74574 28.4467 8.7883C28.1913 8.8734 28.5105 9.57553 28.8084 9.57553C28.936 9.59681 30.0637 9.08617 31.319 8.46915C33.1701 7.55425 33.5956 7.25638 33.5956 6.85213C33.6169 6.08617 32.8722 6.27766 30.6381 7.55425Z" fill="#3D5224"/>
<path d="M86.4043 6.85213C86.4043 7.25638 86.8298 7.55425 88.6809 8.46915C89.9362 9.08617 91.0851 9.59681 91.234 9.57553C91.3617 9.57553 91.4894 9.38404 91.4894 9.17127C91.4894 8.85213 90.9149 8.42659 89.4043 7.57553C87.1064 6.25638 86.383 6.08617 86.4043 6.85213Z" fill="#3D5224"/>
<path d="M22.6597 12.8949C21.8512 13.5545 20.9576 14.2566 20.681 14.4694C20.1703 14.8736 20.2342 15.5332 20.7661 15.5332C21.2767 15.5332 24.8937 12.5119 24.8937 12.0864C24.8937 11.4055 24.1916 11.6609 22.6597 12.8949Z" fill="#3D5224"/>
<path d="M95.1064 12.0864C95.1064 12.5332 98.7235 15.5332 99.2554 15.5332C100.064 15.5332 99.4894 14.6396 97.7873 13.2141C96.0213 11.7034 95.1064 11.3204 95.1064 12.0864Z" fill="#3D5224"/>
<path d="M14.9574 20.3194C14.0425 21.3194 13.2979 22.2556 13.2979 22.4046C13.2979 22.5535 13.4893 22.6812 13.7447 22.7237C14.0851 22.7663 14.5744 22.3407 15.7234 20.979C16.5532 19.979 17.234 19.0216 17.234 18.8514C17.234 18.1492 16.5532 18.5748 14.9574 20.3194Z" fill="#3D5224"/>
<path d="M102.766 18.9572C102.766 19.4466 105.872 22.9785 106.319 22.9785C106.958 22.9785 106.511 21.9998 105.085 20.2977C103.553 18.4892 102.766 18.0423 102.766 18.9572Z" fill="#3D5224"/>
<path d="M9.93612 26.8516C7.87229 29.5962 7.12761 31.2771 7.97867 31.2771C8.34038 31.2771 11.0638 27.1494 11.0638 26.5962C11.0638 25.958 10.5106 26.0856 9.93612 26.8516Z" fill="#3D5224"/>
<path d="M108.936 26.7026C108.936 27.192 111.702 31.2771 112.042 31.2771C112.574 31.2771 112.362 30.6388 111.149 28.4899C110.149 26.7452 109.872 26.3835 109.447 26.3835C109.149 26.3835 108.936 26.5111 108.936 26.7026Z" fill="#3D5224"/>
<path d="M5.12797 35.4676C4.5535 36.574 3.21308 40.0634 3.31946 40.2336C3.51095 40.574 4.25563 40.4463 4.40456 40.0421C4.46839 39.8506 4.85137 38.8719 5.25563 37.8719C6.27691 35.4038 6.31946 35.1059 5.78754 35.1059C5.53222 35.1059 5.25563 35.2761 5.12797 35.4676Z" fill="#3D5224"/>
<path d="M114.042 35.49C114.042 35.724 114.383 36.8091 114.787 37.873C115.191 38.9368 115.532 39.9581 115.532 40.107C115.532 40.3623 115.979 40.6389 116.404 40.6389C116.808 40.6389 116.532 39.4049 115.681 37.341C115.085 35.9581 114.66 35.1921 114.404 35.1496C114.17 35.107 114.042 35.2134 114.042 35.49Z" fill="#3D5224"/>
<path d="M1.95725 44.7461C1.553 45.2355 0.659382 49.8738 0.935978 50.044C1.51045 50.4482 1.76577 50.0653 2.17002 48.1929C2.80832 45.1716 2.87215 44.4695 2.51045 44.4695C2.31896 44.4695 2.08491 44.5972 1.95725 44.7461Z" fill="#3D5224"/>
<path d="M117.32 44.979C117.256 45.1492 117.405 46.1704 117.639 47.2343C117.894 48.3194 118.085 49.4045 118.085 49.6811C118.085 50.1704 118.596 50.5321 118.958 50.2981C119.532 49.9577 118.49 44.8513 117.809 44.7236C117.617 44.6811 117.383 44.7875 117.32 44.979Z" fill="#3D5224"/>
<path d="M0.255351 54.7236C-0.0637976 55.0427 -0.106351 60.1278 0.212798 60.3193C0.340458 60.4044 0.595777 60.3406 0.76599 60.1916C1.02131 59.9789 1.06386 59.4257 1.02131 57.2767C0.957479 54.6597 0.808543 54.1704 0.255351 54.7236Z" fill="#3D5224"/>
<path d="M119.085 54.6167C119 54.6805 118.937 55.9784 118.937 57.4465C118.937 59.5741 119 60.2124 119.256 60.4252C119.426 60.5528 119.66 60.6167 119.788 60.5316C120.107 60.3401 120.064 55.0422 119.745 54.7231C119.447 54.4252 119.277 54.4039 119.085 54.6167Z" fill="#3D5224"/>
<path d="M0.29819 64.9997C0.0641477 65.5742 0.659892 69.9571 1.00032 70.2337C1.61734 70.7444 1.76628 70.1486 1.51096 68.255C1.3833 67.2976 1.25564 66.1061 1.21308 65.638C1.19181 65.021 1.06415 64.7656 0.787552 64.7231C0.596063 64.6805 0.36202 64.8082 0.29819 64.9997Z" fill="#3D5224"/>
<path d="M118.83 65.1494C118.787 65.2983 118.639 66.3834 118.511 67.5536C118.383 68.7238 118.234 69.8302 118.17 70.0217C118.043 70.4472 118.681 70.7238 119.043 70.4259C119.341 70.1706 119.915 65.7451 119.724 65.2345C119.553 64.8302 118.958 64.7877 118.83 65.1494Z" fill="#3D5224"/>
<path d="M1.91504 75.0427C1.91504 75.3831 2.21291 76.6597 2.57461 77.915C3.1278 79.7874 3.31929 80.2129 3.65972 80.2129C3.87249 80.2129 4.10653 80.064 4.19163 79.8725C4.31929 79.532 3.08525 75.2129 2.70227 74.7235C2.34057 74.2554 1.91504 74.4257 1.91504 75.0427Z" fill="#3D5224"/>
<path d="M117.298 74.9364C116.957 75.4896 115.595 79.8939 115.681 80.1492C115.744 80.2981 115.915 80.4258 116.064 80.4258C116.51 80.4258 116.723 80.0002 117.51 77.5534C118.042 75.8726 118.191 75.1492 118.042 74.9577C117.766 74.6173 117.51 74.6173 117.298 74.9364Z" fill="#3D5224"/>
<path d="M5.31934 84.5954C5.31934 85.4252 7.46827 89.3613 7.93636 89.3613C8.55338 89.3613 8.34061 88.5315 7.1704 86.2762C6.02146 84.0847 5.31934 83.4252 5.31934 84.5954Z" fill="#3D5224"/>
<path d="M112.66 86.5956C111.532 88.8722 111.362 89.6594 112.107 89.5318C112.511 89.4466 114.66 85.4466 114.681 84.7232C114.681 84.4041 114.553 84.2552 114.255 84.2552C113.936 84.2552 113.575 84.7871 112.66 86.5956Z" fill="#3D5224"/>
<path d="M10.2341 93.4479C10.2553 94.1501 12.7873 97.5331 13.3617 97.6182C14.1915 97.7458 13.8936 96.916 12.4256 94.8948C10.9787 92.9586 10.1915 92.4267 10.2341 93.4479Z" fill="#3D5224"/>
<path d="M108.277 93.9793C108 94.4048 107.341 95.3197 106.766 95.9793C105.787 97.1708 105.596 97.8729 106.277 97.8729C106.83 97.8729 109.575 94.2772 109.575 93.5751C109.575 92.8942 108.787 93.1495 108.277 93.9793Z" fill="#3D5224"/>
<path d="M16.5957 101.235C16.5957 101.788 19.8085 104.895 20.3829 104.895C20.6383 104.895 20.851 104.767 20.851 104.618C20.851 104.214 17.3829 100.852 16.9574 100.852C16.7446 100.852 16.5957 101.022 16.5957 101.235Z" fill="#3D5224"/>
<path d="M100.49 102.788C98.7449 104.49 98.4683 105.107 99.447 105.107C100 105.107 103.192 101.98 103.192 101.427C103.192 100.597 102.234 101.086 100.49 102.788Z" fill="#3D5224"/>
<path d="M24.2554 107.852C24.2554 108.469 27.766 111.064 28.5958 111.064C29.4469 111.064 28.8298 110.235 26.9149 108.873C24.8086 107.384 24.2554 107.171 24.2554 107.852Z" fill="#3D5224"/>
<path d="M94.1701 108.191C93.8297 108.468 92.8935 109.064 92.1063 109.51C91.2978 109.957 90.6382 110.361 90.6382 110.425C90.6382 110.489 90.7446 110.681 90.8509 110.851C91.1275 111.276 91.8722 110.978 94.0424 109.553C95.1275 108.829 95.7446 108.276 95.7446 108.042C95.7446 107.489 94.9148 107.574 94.1701 108.191Z" fill="#3D5224"/>
<path d="M32.7661 113.235C32.7661 113.66 33.1065 113.873 34.9576 114.618C37.3406 115.618 38.1704 115.767 38.0427 115.171C37.9789 114.852 33.681 112.767 33.0427 112.767C32.8938 112.767 32.7661 112.979 32.7661 113.235Z" fill="#3D5224"/>
<path d="M83.8936 113.915C82.0426 114.66 81.7234 114.852 81.7021 115.256C81.7021 116.001 82.4681 115.873 84.8936 114.767C86.4681 114.022 87.0213 113.66 87.0213 113.384C87.0213 112.788 86.3617 112.894 83.8936 113.915Z" fill="#3D5224"/>
<path d="M42.1704 116.957C42.2555 117.425 45.3619 118.532 46.681 118.574C47.4257 118.617 47.5534 118.553 47.5534 118.191C47.5534 117.83 47.2129 117.681 45.4257 117.191C42.8087 116.511 42.064 116.447 42.1704 116.957Z" fill="#3D5224"/>
<path d="M74.3194 117.193C72.5322 117.639 72.1279 117.81 72.1279 118.129C72.1279 118.788 72.6598 118.788 75.213 118.171C77.4471 117.618 77.6598 117.533 77.6598 117.086C77.6598 116.448 77.1705 116.469 74.3194 117.193Z" fill="#3D5224"/>
<path d="M51.915 119C51.915 119.596 52.4682 119.745 55.0214 119.894C56.9576 120.021 57.6384 119.979 57.7661 119.787C58.1065 119.213 57.3406 118.979 54.6384 118.83C52.3193 118.724 51.915 118.745 51.915 119Z" fill="#3D5224"/>
<path d="M63.936 118.915C62.3403 119.043 62.2339 119.086 62.1701 119.554L62.085 120.064L64.7233 119.915C67.2977 119.766 68.1275 119.511 67.7871 118.958C67.6382 118.724 66.9147 118.703 63.936 118.915Z" fill="#3D5224"/>
<path d="M103.493 64.9232C102.627 66.108 101.439 66.9724 100.057 67.4231C97.9608 68.1065 95.6419 67.741 93.86 66.4492L88.8046 62.7726C88.4319 62.5014 87.8895 61.785 87.4242 59.9137C86.9252 57.9048 87.3462 55.7767 88.58 54.0744C89.8453 52.3286 91.7713 51.2654 93.8672 51.1535C94.1135 51.1415 94.3429 51.135 94.5554 51.135C95.9341 51.135 96.6013 51.3894 96.9201 51.6196L101.967 55.2922C105.043 57.5281 105.727 61.8486 103.493 64.9232ZM80.1338 82.8065H69.3985V72.4392C69.3985 72.2452 69.3051 72.0657 69.1497 71.9528L61.4826 66.4677C61.2798 66.3237 61.0117 66.3172 60.8057 66.4557L52.5196 71.9415C52.353 72.0512 52.2524 72.238 52.2524 72.4392V82.8065H42.4338V49.8247C42.4338 49.6734 42.3726 49.539 42.2793 49.4335L60.6697 37.6954L80.1338 50.1193V82.8065ZM102.669 54.3271L97.6203 50.6529C96.846 50.0943 95.6009 49.8666 93.8036 49.9623C91.3472 50.0919 89.0911 51.3363 87.6134 53.3734C87.5965 53.3967 87.5836 53.4233 87.5667 53.4466L60.9908 36.4848C60.7944 36.3593 60.5449 36.3593 60.3485 36.4848L34.093 53.2422L32.1291 50.228C30.8638 48.2874 28.2569 47.7377 26.318 49.0029L15.2712 56.2001C14.9951 56.3795 14.917 56.7498 15.0965 57.025C15.2768 57.3019 15.6478 57.38 15.9223 57.1989L26.9699 50.0018C27.6419 49.5639 28.446 49.415 29.2308 49.5784C30.0163 49.745 30.6908 50.207 31.1286 50.8791L31.61 51.6179L18.0439 60.457C17.7678 60.6365 17.6906 61.0059 17.8701 61.2812C17.9844 61.4574 18.1759 61.5532 18.3707 61.5532C18.4826 61.5532 18.5952 61.5218 18.6959 61.4558L32.2611 52.6176L34.3827 55.8749L20.8175 64.7123C20.5414 64.8926 20.4633 65.2621 20.6436 65.5373C20.7579 65.7136 20.9487 65.8086 21.1443 65.8086C21.2561 65.8086 21.3688 65.778 21.4686 65.712L35.0339 56.8737L35.516 57.6126C35.9538 58.2855 36.1043 59.0887 35.9385 59.8735C35.7719 60.6598 35.3107 61.3335 34.6378 61.7713L23.5911 68.9691C23.315 69.1496 23.2369 69.519 23.4164 69.7951C23.5315 69.9705 23.7222 70.0655 23.917 70.0655C24.0289 70.0655 24.1424 70.035 24.243 69.9689L35.2898 62.7718C36.2291 62.1593 36.8746 61.2168 37.1056 60.1198C37.3374 59.0227 37.1281 57.9007 36.5156 56.9615L35.7083 55.7228L34.7441 54.2418L41.2402 50.0968V83.4029C41.2402 83.7328 41.5074 84 41.8366 84H52.8496C53.1788 84 53.446 83.7328 53.446 83.4029V72.7592L61.122 67.6775L68.2048 72.7457V83.4029C68.2048 83.7328 68.4728 84 68.802 84H80.731C81.061 84 81.3282 83.7328 81.3282 83.4029V50.8815L86.9526 54.4712C86.0439 56.2379 85.7847 58.2637 86.266 60.2019C86.7151 62.0104 87.3156 63.1662 88.1027 63.7376L93.1581 67.4151C94.5546 68.4268 96.2295 68.9541 97.9213 68.9541C98.7632 68.9541 99.6091 68.8236 100.427 68.5573C102.049 68.0292 103.443 67.0159 104.457 65.6267C107.08 62.0184 106.277 56.9502 102.669 54.3271Z" fill="#3D5224"/>
<path d="M65.2487 52.8591H55.7512V47.3257L60.178 44.2326L65.2487 47.3482V52.8591ZM59.815 43.0301L54.8128 46.5248C54.6526 46.6367 54.5576 46.8202 54.5576 47.015V53.4563C54.5576 53.7855 54.8248 54.0527 55.1548 54.0527H65.8451C66.1743 54.0527 66.4415 53.7855 66.4415 53.4563V47.015C66.4415 46.8073 66.3344 46.615 66.1574 46.5063L60.4694 43.0108C60.2657 42.8868 60.0098 42.8933 59.815 43.0301Z" fill="#3D5224"/>
</g>
<defs>
<clipPath id="clip0_100_3538">
<rect width="120" height="120" fill="white"/>
</clipPath>
</defs>
</svg>
