<svg width="25" height="24" viewBox="0 0 25 24" fill="none" xmlns="http://www.w3.org/2000/svg">
<path d="M20.5333 13.0836H5.93333V6.23983C5.93263 5.9821 5.98305 5.72679 6.08168 5.48868C6.18031 5.25056 6.3252 5.03438 6.50794 4.85264L6.52315 4.83743C6.80955 4.55146 7.17725 4.36087 7.57603 4.29172C7.97481 4.22257 8.38521 4.27822 8.75117 4.45106C8.40555 5.02571 8.26189 5.69938 8.34303 6.36502C8.42417 7.03067 8.72544 7.65011 9.19898 8.1249L9.61535 8.54127L8.84896 9.30769L9.70922 10.168L10.4756 9.40157L14.7221 5.15513L15.4885 4.38875L14.6282 3.52845L13.8618 4.29484L13.4454 3.87847C12.9469 3.38136 12.2898 3.07492 11.5885 3.01256C10.8873 2.95019 10.1864 3.13586 9.60801 3.53719C8.99809 3.15201 8.27529 2.98572 7.55836 3.06565C6.84143 3.14558 6.17301 3.46697 5.66289 3.97702L5.64768 3.99223C5.35159 4.2867 5.11685 4.63697 4.95704 5.02277C4.79723 5.40857 4.71553 5.82224 4.71667 6.23983V13.0836H3.5V14.3002H4.71667V15.4675C4.71664 15.5656 4.73246 15.663 4.76351 15.756L5.89531 19.1513C5.95571 19.3331 6.07185 19.4912 6.22724 19.6032C6.38262 19.7152 6.56935 19.7754 6.76089 19.7752H7.25136L6.80781 21.2961H8.07516L8.51875 19.7752H16.4309L16.8871 21.2961H18.157L17.7008 19.7752H18.489C18.6805 19.7754 18.8673 19.7153 19.0227 19.6032C19.1781 19.4912 19.2943 19.3331 19.3547 19.1513L20.4864 15.756C20.5175 15.663 20.5333 15.5656 20.5333 15.4675V14.3002H21.75V13.0836H20.5333ZM10.0594 4.73877C10.3945 4.40431 10.8487 4.21647 11.3222 4.21647C11.7957 4.21647 12.2499 4.40431 12.5851 4.73877L13.0014 5.15513L10.4757 7.68082L10.0594 7.26453C9.72491 6.92933 9.53709 6.47516 9.53709 6.00165C9.53709 5.52814 9.72491 5.07397 10.0594 4.73877ZM19.3167 15.4181L18.2699 18.5586H6.98012L5.93333 15.4181V14.3002H19.3167V15.4181Z" fill="#3D5224"/>
</svg>
