<svg width="24" height="25" viewBox="0 0 24 25" fill="none" xmlns="http://www.w3.org/2000/svg">
<path d="M8.48441 3.6144C8.48441 3.74448 8.4141 3.91675 8.24887 4.18042C8.00277 4.57769 7.93949 4.80972 7.94301 5.30542C7.94652 5.81167 7.98168 5.9312 8.2559 6.41636C8.38949 6.64839 8.46332 6.82065 8.47738 6.92261L8.49496 7.08081H9.0223H9.54965L9.52855 6.85933C9.49691 6.53589 9.42309 6.32847 9.19809 5.93823L8.99418 5.58667V5.28784C8.99418 4.98901 8.99418 4.9855 9.17348 4.69019C9.39496 4.31753 9.4934 4.05737 9.52504 3.76206L9.54965 3.53003H9.01527H8.48441V3.6144Z" fill="#464646"/>
<path d="M11.5432 3.65322C11.5432 3.78682 11.4904 3.90635 11.283 4.25088C11.0791 4.58486 11.0088 4.85908 11.0088 5.28799C11.0088 5.73799 11.0721 5.9665 11.3322 6.4165C11.4447 6.61338 11.5221 6.79268 11.5361 6.89814L11.5607 7.06338L12.0811 7.07393L12.5979 7.08447V6.89111C12.5979 6.62393 12.4959 6.32861 12.2709 5.92783C11.9721 5.404 11.9686 5.15791 12.2533 4.67979C12.4607 4.33174 12.5697 4.03643 12.5908 3.76572L12.6084 3.53018H12.074H11.5432V3.65322Z" fill="#464646"/>
<path d="M14.6226 3.6812C14.6085 3.76909 14.5241 3.96245 14.4257 4.1312C14.1233 4.63745 14.0952 4.74292 14.0952 5.28784C14.0952 5.82925 14.1198 5.92065 14.4257 6.448C14.5347 6.63784 14.6085 6.81714 14.6226 6.91909L14.6472 7.08081H15.1745H15.7019L15.6772 6.85581C15.6456 6.54995 15.5507 6.29331 15.3327 5.91011C15.1604 5.61128 15.1464 5.56909 15.1358 5.323C15.1218 5.03823 15.1112 5.06987 15.4593 4.43706C15.5823 4.21206 15.6878 3.8394 15.6913 3.62495V3.53003H15.1675H14.6437L14.6226 3.6812Z" fill="#464646"/>
<path d="M3 9.04984C3 9.92523 3.02461 10.1151 3.1793 10.442C3.32695 10.7549 3.50273 10.9412 3.90352 11.212C3.91055 11.2155 4.11094 13.5112 4.35352 16.3131C4.59609 19.1151 4.8 21.4284 4.81055 21.4495C4.83164 21.5163 19.1684 21.5163 19.1895 21.453C19.2 21.4284 19.4039 19.1151 19.6465 16.3131C19.8891 13.5112 20.0895 11.2155 20.0965 11.212C20.4973 10.9412 20.673 10.7549 20.8207 10.442C20.9754 10.1151 21 9.92523 21 9.04984V8.24125H12H3V9.04984ZM19.9383 9.60531C19.9277 9.8725 19.9137 9.93578 19.8328 10.0588C19.7766 10.1432 19.6781 10.2311 19.5867 10.2768L19.432 10.3506H12H4.56797L4.41328 10.2768C4.32187 10.2311 4.22344 10.1432 4.16719 10.0588C4.08633 9.93578 4.07227 9.8725 4.06172 9.60531L4.04766 9.29594H12H19.9523L19.9383 9.60531ZM6.97617 14.5518C7.12734 16.2745 7.25742 17.7791 7.26797 17.8987L7.29258 18.1202H6.42773C5.95312 18.1202 5.56641 18.1096 5.56641 18.0991C5.56641 18.085 5.43984 16.6155 5.28516 14.8295C5.13047 13.0471 5.00391 11.5459 5.00391 11.4967V11.4053L5.85469 11.4123L6.70898 11.4229L6.97617 14.5518ZM9.60938 11.4756C9.60938 11.6022 9.92227 17.6737 9.93984 17.9022L9.95742 18.1202H9.15234C8.70586 18.1202 8.34375 18.1166 8.34375 18.1096C8.34375 18.1061 8.21719 16.6401 8.0625 14.8541C7.90781 13.0682 7.78125 11.5635 7.78125 11.5073V11.4053H8.69531C9.5918 11.4053 9.60938 11.4053 9.60938 11.4756ZM12.9844 11.4299C12.9844 11.5424 12.6645 17.7299 12.6469 17.8987L12.6258 18.1202H11.8242H11.0191L11.0016 17.9338C10.984 17.7862 10.6641 11.5952 10.6641 11.4475C10.6641 11.4159 10.9207 11.4053 11.8242 11.4053C12.4641 11.4053 12.9844 11.4159 12.9844 11.4299ZM16.2188 11.5037C16.2188 11.5565 16.0922 13.0647 15.9375 14.8506C15.7828 16.6401 15.6562 18.1061 15.6562 18.1096C15.6562 18.1166 15.2133 18.1202 14.6719 18.1202H13.6875L13.7086 17.867C13.7262 17.628 14.0391 11.56 14.0391 11.4545C14.0391 11.4123 14.2254 11.4053 15.1289 11.4053H16.2188V11.5037ZM18.9961 11.4967C18.9961 11.5459 18.8695 13.0471 18.7148 14.8295C18.5602 16.6155 18.4336 18.085 18.4336 18.0991C18.4336 18.1096 18.0434 18.1202 17.5687 18.1202H16.7039L16.725 17.969C16.7355 17.8881 16.8656 16.3975 17.0133 14.6573C17.1609 12.917 17.2875 11.4721 17.2945 11.4475C17.3016 11.4159 17.5055 11.4053 18.1523 11.4053H18.9961V11.4967ZM7.4332 19.7901C7.46133 20.117 7.47891 20.3983 7.47187 20.4123C7.46484 20.4299 7.08164 20.4405 6.62109 20.4405H5.78086L5.76328 20.2893C5.73516 20.0959 5.67188 19.3541 5.67188 19.2522V19.1748L6.52617 19.1819L7.37695 19.1924L7.4332 19.7901ZM10.0102 19.3577C10.0207 19.4596 10.0383 19.7444 10.0523 19.9905L10.0734 20.4405H9.31406H8.5582L8.54062 20.3245C8.51602 20.1838 8.44922 19.3893 8.44922 19.2663V19.1748H9.21914H9.99258L10.0102 19.3577ZM12.566 19.5088C12.559 19.6811 12.5449 19.9588 12.5344 20.1241L12.5098 20.4229L11.8313 20.4334C11.3074 20.4405 11.1527 20.4334 11.1387 20.3983C11.1176 20.3315 11.0578 19.2311 11.0754 19.1995C11.0859 19.1854 11.427 19.1784 11.8348 19.1819L12.5766 19.1924L12.566 19.5088ZM15.5508 19.2663C15.5508 19.3823 15.484 20.1768 15.4594 20.3245L15.4418 20.4405H14.5102H13.575L13.5961 19.9553C13.6102 19.6916 13.6277 19.4069 13.6383 19.3225L13.6559 19.1748H14.6051H15.5508V19.2663ZM18.3281 19.2522C18.3281 19.3541 18.2648 20.0959 18.2367 20.2893L18.2191 20.4405H17.3824C16.9219 20.4405 16.5387 20.4334 16.5316 20.4264C16.5141 20.4088 16.602 19.2909 16.623 19.217C16.6336 19.1854 16.8375 19.1748 17.4844 19.1748H18.3281V19.2522Z" fill="#464646"/>
</svg>
