<svg width="157" height="157" viewBox="0 0 157 157" fill="none" xmlns="http://www.w3.org/2000/svg">
<g clip-path="url(#clip0_224_4139)">
<path d="M78.5 146.5C116.055 146.5 146.5 116.055 146.5 78.5C146.5 40.9446 116.055 10.5 78.5 10.5C40.9446 10.5 10.5 40.9446 10.5 78.5C10.5 116.055 40.9446 146.5 78.5 146.5Z" stroke="#DDDDDC"/>
<path d="M39.7221 68.0458C38.6042 68.1856 37.6261 68.8842 37.1071 69.9122C36.2787 71.5491 36.3585 73.8147 37.4365 79.6236C38.7639 86.7299 38.7539 87.8378 37.3766 87.8378C36.9674 87.8378 36.8875 87.7979 36.4983 87.3687C35.4802 86.2408 35.081 84.6339 34.1128 77.7572C32.9451 69.543 32.985 69.7825 32.7155 69.2336C32.5758 68.9641 32.3163 68.6347 32.1366 68.505C31.8173 68.2754 31.7674 68.2754 29.1125 68.2554C26.7171 68.2455 26.4975 68.2554 27.0864 68.3652C28.1743 68.5549 28.5635 68.9641 28.5635 69.9023C28.5635 70.1917 27.7551 74.743 26.767 80.0228C25.7789 85.2927 24.9804 89.6243 25.0004 89.6443C25.0203 89.6742 26.5374 89.6742 28.3739 89.6643L31.7075 89.6343L31.0787 89.295C29.4718 88.4266 28.4737 86.5602 28.0046 83.586C27.805 82.3384 27.775 78.7053 27.9547 77.1084C28.1543 75.2919 28.9727 69.4831 29.0526 69.2835C29.1224 69.1038 29.1524 69.1238 29.3919 69.4431C29.7512 69.9122 30.0007 70.9503 30.2503 73.0263C30.5098 75.1821 31.0986 79.5038 31.3681 81.3003C32.0169 85.622 33.2246 88.1671 35.0411 89.0554C35.5301 89.295 35.7198 89.3349 36.4983 89.3349C37.5662 89.3249 38.0952 89.1053 38.4844 88.5065C39.1831 87.4485 39.0933 86.0712 37.9055 79.903C37.177 76.1203 36.9474 74.4934 36.9474 73.1261C36.9474 71.7088 37.0771 70.9103 37.4265 70.2815C37.7858 69.6328 38.1451 69.3733 38.694 69.3733C39.6123 69.3733 40.0315 70.1019 40.281 72.0781C40.3708 72.7268 40.9397 76.9587 41.5585 81.47L42.6864 89.6842H44.3032H45.9301L45.8802 89.4048C45.8503 89.2551 45.471 86.4804 45.0318 83.2466C43.9839 75.4416 43.375 71.2996 43.1854 70.581C42.6464 68.5549 41.6184 67.7963 39.7221 68.0458Z" fill="#DDDDDC"/>
<path d="M48.9302 78.7294V89.4688H50.4772H52.0242V78.7993V68.1298L51.2058 68.0799C50.7467 68.0599 50.048 68.02 49.6588 68.01L48.9302 68V78.7294Z" fill="#DDDDDC"/>
<path d="M55.2038 68.1672C55.0342 68.3468 55.0242 69.0056 55.0242 79.0063V89.6558H57.2699H59.5155L58.9267 88.4781C56.7209 84.0766 55.7228 79.5153 55.4633 72.6585C55.3935 70.9119 55.4034 70.8919 55.6031 70.8919C55.8825 70.8919 56.4015 71.4409 56.8107 72.1595C56.9904 72.4789 58.0983 74.6048 59.256 76.8804C62.9489 84.0965 64.2265 86.1725 66.2027 88.1687C66.9213 88.8873 67.3205 89.2067 67.8395 89.4562C68.5781 89.8255 69.4464 89.9553 69.9255 89.7656L70.195 89.6558V78.9265V68.1971H67.9892C66.7816 68.1971 65.8034 68.2271 65.8234 68.267C65.8434 68.3169 66.1328 68.9057 66.4722 69.5944C68.5581 73.8662 69.5862 78.5871 69.7658 84.6555L69.8257 86.8912L69.4963 86.8213C68.8077 86.6915 67.9992 85.8232 66.6418 83.7672C65.2844 81.7011 63.7075 78.8466 61.6115 74.6347C59.5555 70.5027 59.0564 69.6343 58.3578 68.9257C57.709 68.277 57.21 68.0674 56.2219 68.0175C55.4733 67.9775 55.3535 67.9975 55.2038 68.1672Z" fill="#DDDDDC"/>
<path d="M73.1951 78.7294V89.4587H76.2193C79.3931 89.4587 80.4212 89.3789 81.7187 89.0495C83.7248 88.5405 85.5713 87.263 86.6692 85.6361C87.4976 84.3885 88.1463 82.542 88.3759 80.7156C88.5356 79.3981 88.4358 76.7132 88.1763 75.5355C87.248 71.3037 84.7129 68.8084 80.6707 68.1497C79.972 68.0399 78.9141 68 76.4688 68H73.1951V78.7294ZM80.1317 68.6288C83.4454 69.7067 85.1621 72.7908 85.3417 77.9808C85.4715 81.5839 84.8127 84.4783 83.4354 86.4046C82.078 88.301 80.1317 89.1593 77.1674 89.1593H76.2891V78.7194V68.2695L77.8162 68.3194C79.0837 68.3693 79.463 68.4192 80.1317 68.6288Z" fill="#DDDDDC"/>
<path d="M99.0427 68.0488C96.4377 68.2883 94.1122 69.9651 92.8346 72.5202C91.068 76.0334 90.9882 81.2733 92.635 84.9463C94.1022 88.21 96.9467 90.0365 100.32 89.8568C101.628 89.787 102.316 89.6073 103.474 89.0384C105.84 87.8806 107.467 85.4154 108.175 81.942C108.455 80.5547 108.425 77.1213 108.125 75.724C107.836 74.3866 107.586 73.6779 107.047 72.5701C105.969 70.3543 104.063 68.7574 101.867 68.2284C100.889 67.9989 100.131 67.949 99.0427 68.0488ZM101.039 68.4979C103.744 69.466 105.41 74.5363 105.011 80.5347C104.772 84.1478 103.923 86.8027 102.536 88.2998C101.119 89.8369 99.1126 89.9766 97.6254 88.6292C96.4477 87.5612 95.6093 85.6549 95.1103 82.9002C94.9106 81.8023 94.8807 81.3332 94.8907 78.9079C94.8907 76.0334 94.9705 75.215 95.4396 73.3685C96.2481 70.2046 97.8949 68.3282 99.8711 68.3282C100.28 68.3282 100.769 68.3981 101.039 68.4979Z" fill="#DDDDDC"/>
<path d="M111.368 78.7294V89.4587H112.965H114.562V78.8691V68.2894L117.437 68.3194C120.211 68.3493 120.321 68.3593 120.83 68.5889C123.186 69.6568 123.285 73.6392 121.02 75.8749C120.211 76.6633 119.972 76.833 118.295 77.8311C116.888 78.6695 116.319 79.1585 116.199 79.6376C115.97 80.5559 118.275 84.668 120.94 88.0914C122.028 89.4787 121.988 89.4687 124.653 89.4388C126.02 89.4188 126.719 89.3789 126.589 89.319C126.11 89.0994 125.282 88.3708 124.483 87.4326C122.198 84.7777 119.263 80.3363 118.784 78.7893L118.614 78.2603L118.914 77.9908C119.074 77.8411 119.702 77.5217 120.311 77.2822C124.393 75.6653 125.851 74.0883 125.721 71.4234C125.691 70.7447 125.621 70.4154 125.421 69.9762C125.062 69.1877 124.333 68.4791 123.615 68.2096C123.046 68 122.926 68 117.207 68H111.368V78.7294Z" fill="#DDDDDC"/>
<path d="M129.604 78.7294V89.4587H131.201H132.798V78.7294V68H131.201H129.604V78.7294Z" fill="#DDDDDC"/>
<path d="M56 142.55C59.6 141.75 68 140.05 72.5 146.05" stroke="#DDDDDC" stroke-width="0.3"/>
<path d="M76.5 146.5C76.1 144.1 71 139.55 65.5 138.05C59.5 136.55 54 138.05 50 140.05" stroke="#DDDDDC" stroke-width="0.3"/>
<path d="M81.5 146.5C84 140.5 70.4997 138.55 68.4997 134.55C66.8997 130.55 67.5 130.05 72.4997 128.05C75.2999 127.25 78.5 127.55 83 126.05L91.3791 120.628M91.3791 120.628L91.5 120.55M91.3791 120.628C94.2758 118.565 99 118.05 106 121.55C109.2 122.75 111.5 120.383 114 119.55C116.4 118.75 118.833 119.883 120.5 121.05C122.5 123.55 119.333 126.883 117.5 127.55C114.5 129.55 114.167 134.05 114.5 136.55" stroke="#DDDDDC" stroke-width="0.3"/>
<path d="M87 146C88.5 137.5 81.3895 138.356 78.5 136.55C75.3 134.55 74 133.05 76.4999 131.55C81.2999 129.55 83.9997 131.05 92.9997 125.55C96.1997 123.95 106 129.55 109.5 139.05" stroke="#DDDDDC" stroke-width="0.5"/>
<path d="M93 145.05C93 141.55 92.5 137.55 95.5 136.55C98.2441 135.452 101.5 139.55 104 141.55" stroke="#DDDDDC" stroke-width="0.3"/>
<path d="M41.5 135.5C47.5 127.5 52 119.5 68 124C76.8 126.8 85.6667 121.167 89 118C93.4 113.6 100.5 114.833 103.5 116C107.5 117.6 112.5 113.75 117 114.5C120 115 126.5 120 128.5 125" stroke="#DDDDDC" stroke-width="0.5"/>
<path d="M38 132.5C43 126 49 122.036 53.5 118.5C58 114.965 56.5 113.5 66 118.5C70.8 120.5 78 119.5 84 117C92 111.4 97.5 110.667 99.5 111C104.3 111.8 106.5 112.5 110 112C115.048 111.279 116 111.5 119.5 112.5C121.9 113.3 127.5 116.5 130.5 121.5" stroke="#DDDDDC" stroke-width="0.3"/>
<path d="M132.5 120C126.5 111.5 119 108.5 110 108.5C103.5 109 101 107 96.5 107C92 107.5 89.3942 111.15 86 112.693C85.0889 113.107 84.2209 113.303 83.5 113.5C78 115 70 116 68.5 111C67.9 109 68 103.5 59.5 103.5C49.5 105 50 114.5 48 118.5C45.6 122.5 38.5 125 35.5 131" stroke="#DDDDDC" stroke-width="0.3"/>
<path d="M134 117.5C129 110 119.5 107.5 106 103.5C98 100 95 101.75 91.5 104.5C85.9 108.9 84 111 80 109.5C76.4 108.7 74 104.786 72.5 103.5C69 100.5 58.4337 101.113 56.5 101.5C51.5 102.5 47.5 108 46 111.5C44.4 116.3 41.3333 118.833 40 119.5C36 121.5 32.5 124.5 31 126.5" stroke="#DDDDDC" stroke-width="0.5"/>
<path d="M136 114C133.6 110.4 131 108 125 107C111.5 104 107.278 97.3388 99 95.4997C94.5 94.5 91.8207 98.2305 88.5 102.5C86.7175 104.791 83 107 80 105C74 99.9998 70.5 97.9998 63.5 97.9998C55.5 97.9998 48.1667 104 45.5 107.5C40.7634 113.717 36 117.5 26 121" stroke="#DDDDDC" stroke-width="0.3"/>
<path d="M138.5 110.5C137 105.001 129.5 105.501 126.5 104.5C123 103.001 124.167 100.667 126 99.5006C127.6 98.7006 131 99.0006 135.5 98.5005C137.488 98.2797 140 95.5006 140 93.5006C140 89.5006 140.5 85.0006 144 84.0006C147 83.1434 146.5 83.5006 146 83.5006" stroke="#DDDDDC" stroke-width="0.3"/>
<path d="M20 112.5C28 108.1 29.554 101 29.054 98C28.5 95.5 21.5539 96 19.054 94C14.1044 90.04 11.5 82 11 77C11 71.5 12.0539 66 13.554 63.5C15.5 61 17.7207 59.8333 19.5541 59C21.5541 58.0909 23.5541 55.5 23.5541 53C23.5541 49.0516 20.5539 45.5 20.0541 44" stroke="#DDDDDC" stroke-width="0.5"/>
<path d="M139.5 49.5C136 54.5 132.554 63 137.054 69C139.054 72.5 144.054 72.5 146.554 74.5" stroke="#DDDDDC" stroke-width="0.3"/>
<path d="M26 35.9999C28.4 41.5999 31 47.3332 32 49.4999C34 53.9996 36.5 55.9996 40 59.4999C45 62.9996 52 63.9996 57 59.4999C61 54.9996 66.3333 51.8332 70 49.4999C75.2 46.6999 75.8333 39.3332 75.5 35.9999C75.1 33.1999 74 27.4996 77 24.4999C78.8413 22.6588 79.5 21.9996 83 19.9999C87 17.4996 90 13.9996 91.5 16.4999C93.5 20.4996 95 24.1666 95.5 24.4999C97 26.4999 101 25.4999 104 27.9999C107.2 29.5999 108.5 34.9999 106.5 39.9999C105 45.9999 107.5 48.9999 112 52.4999C117.2 55.6999 123.5 54.4996 125 52.9999C126.5 51.5002 128 44.9996 133 38.4996" stroke="#DDDDDC" stroke-width="0.3"/>
<path d="M57 14C53.5 15 52.8292 15.2478 50.5003 18C45 24.5 36.5 31.5 35.5001 33C32.5001 35.7 33 44 37.0003 52C39.0004 56 41.9875 57.5 45.5003 59.6936C45.6768 59.8039 45.844 59.9062 46.0003 60C49 61.7998 54.167 58.5 56.5003 56C59.3003 53 61 50 69.0003 46.5C74.5 43 72.3337 34.8333 72.0003 30C72.0003 26.4 73.5837 23 76.5003 20.5C80.0003 17.5 84.3337 13.1667 86.0003 10.5" stroke="#DDDDDC" stroke-width="0.5"/>
<path d="M66.4999 11.5C66.4999 16 61.0958 16.8676 55.9999 18C53.6094 18.5312 49 25 45.5 28C41 31.5 37.7031 35.8905 36.9999 38C35.3999 44.4 40.9999 52.6667 43.9999 56C46.4 58 50.3333 56.8333 52 56C56 52.4 61.3333 47.8333 63.5 46C69.5 41.5 69.5 42 69.5 30.5C69.5 28.1 69 19.5 73.5 17.5C76 16 79 15.5 81.5 10.5" stroke="#DDDDDC" stroke-width="0.3"/>
<path d="M53.5 23.4998C52.1666 25.1665 48.8 29.1998 46 31.9998C44.3333 33.4998 41.2828 37.0199 41 38.9998C40.5 42.4998 41 47.9998 44 51.4998C45.2857 52.9998 48.1 54.1998 50.5 52.9998C51.8333 51.8331 54.9 49.1998 56.5 47.9998C58.3333 46.9998 62.6 44.0998 65 40.4998C67 37.4998 67.9 30.9998 67 26.4998C66.6666 24.8331 65.4 21.2998 63 20.4998C61.3333 19.9997 57.1 19.8997 53.5 23.4998Z" stroke="#DDDDDC" stroke-width="0.3"/>
<path d="M54.4999 28.0002C53.4999 29.3335 50.9999 32.6002 48.9999 35.0002C40.4999 44.5 47 51.3948 50.4999 49C53.6666 46.8333 60.4999 41.9 62.4999 39.5C65.9999 33 63.8999 26.1001 61.4999 24.5002C58.4999 23 55.6999 26.0002 54.4999 28.0002Z" stroke="#DDDDDC" stroke-width="0.3"/>
<path d="M29 32C31.4 30.8 37 28 39.5 26C41.3213 24.543 45 20.6667 47 18" stroke="#DDDDDC" stroke-width="0.3"/>
<path d="M69 11C69 12.5 69.0761 13.6528 69.4999 14.5C70.1184 15.7369 75 13.5 77 12.5C77.8 12.1 79 11.1667 79.5 10.5" stroke="#DDDDDC" stroke-width="0.3"/>
<path d="M99 13.5C98.5 17.5 98.761 19 101.261 20C103.761 21 107.261 22.5 108.761 27C109.806 30.1349 112.261 33.5 110.761 36C109.161 38.4 107.761 43.5 110.261 47C112.261 49.8 115.761 51.5 118.761 51.5C120.361 51.5 122 51.5 123.261 50C124.368 48.6831 128 38.5 130 34.5" stroke="#DDDDDC" stroke-width="0.3"/>
<path d="M121.5 25.5001C118.7 24.7001 118 23.5001 116.261 23.9998C115.045 24.3493 115.261 27.0001 116.761 31.4998C117.855 34.7819 114.928 38.1665 113.761 39.4999C112.161 41.0999 112.261 44.9999 114.261 46.9999C115.461 48.5999 120.261 49.4999 122.261 45.9999C123.296 44.1885 126.761 34.4999 126.261 29.9999" stroke="#DDDDDC" stroke-width="0.3"/>
<path d="M97.0392 44C96.781 42.7089 97.8392 40.2 99.0392 39C100.039 40.8333 101.939 44.9 101.539 46.5C101.372 47 100.739 47.9 99.5392 47.5C98.8725 47.1667 97.4392 46 97.0392 44Z" stroke="#DDDDDC" stroke-width="0.2"/>
<path d="M83.5002 32.5003C80.0002 30.5002 78.3855 31.2384 78.5002 32.5003C78.6668 34.3336 78.8002 38.3003 78.0002 39.5003C77.1668 41.3336 75.5002 45.2003 75.5002 46.0003C75 49.5003 76.7002 49.9002 77.5002 49.5002C79.0002 48.8335 82.4002 47.5003 84.0002 47.5002C88.0002 47.0002 89 45.0003 90.0002 40.0002C91.5002 34.5002 86.8646 34.4228 83.5002 32.5003Z" stroke="#DDDDDC" stroke-width="0.2"/>
<path d="M81 36.0007C80.8334 36.6674 80.4 38.5007 80 40.5007C79.3619 43.6912 85.2 45.3007 86 44.5007C87 43.5007 88.5 38.5007 88 36.5007C87.6802 35.2212 85.0733 34.5374 84 34.0007C83 33.5007 81.5 33.4999 81 36.0007Z" stroke="#DDDDDC" stroke-width="0.2"/>
<path d="M83 36.0003C82.5 37 82 39.3003 82 40.5003C82 42.5002 85.5 44.0002 86 38.5003C86.5 35.0001 83.5 35 83 36.0003Z" stroke="#DDDDDC" stroke-width="0.2"/>
<path d="M104 42.0001C104.5 43.0001 106 46 105.5 47.5001C103.5 51.5 99 51.5 98 51C96.3333 50.1667 92.8 48.1 92 46.5C91.5 44.5 92.5 41 93.5 38.5C94.5 36 91.3201 33.6601 89 32.5C87 31.5 84.5 29.5 82.4999 28C81.3332 27.1667 79.2999 25.3 80.4999 24.5C81.9999 23.1667 85.4999 20.4 87.4999 20C89.9999 20 92.3333 23 93.9999 26C94.8332 27.5 97.0999 30.5001 99.4999 30.5001C100.667 30.3334 103.1 30.3001 103.5 31.5001C104.333 33.1667 105.9 36.7001 105.5 37.5001C105 38.5001 103.5 40.5 104 42.0001Z" stroke="#DDDDDC" stroke-width="0.2"/>
<path d="M89.4999 31.9999C90.6666 32.4999 93.5 33.5002 94.4999 34.9999C95 35.6666 95.5 37.1666 95 38.4999C94.5 39.8332 93.5 42.9999 93.5 44.9999C93.5 45.9999 94.4 47.2999 96 48.4999C97.1667 49.1666 99 50.9999 101 49.9999C104 48.9999 104.5 46.9999 104 44.9999C103 42.9999 103 41.6754 103 40.4999C103 37.4999 104 33.4999 102 31.9999C100.5 30.9999 98 32.4999 97 31.4999C96 30.9999 94.5 27.9999 92.5 25.4999C91 22.5 88.5 21.0002 86.9999 21.4999C84.5 22.4999 82 24.5002 82.9999 26.4999C84 28.5002 87.4999 31.1999 89.4999 31.9999Z" stroke="#DDDDDC" stroke-width="0.2"/>
<path d="M89.4998 23.5C87.5 22.0002 86.2998 23.1 85.4998 23.5C83 25.5001 85.3998 28.3001 86.9998 29.5001C88.5 30.6252 92 32.5002 93.4998 32.0001C94.5 31.5002 94.5 30.0002 93.9998 29.0001C93.1665 27.5001 91.3166 24.8625 89.4998 23.5Z" stroke="#DDDDDC" stroke-width="0.2"/>
<path d="M90.0001 25.5001C88.5 24 85.5001 23.5 86.0001 26.0001C86.5001 27.5001 88.8001 29.6001 90.0001 30.0001C91.3194 30.4399 92.5001 30.3001 92.5001 29.5001C92.5001 28.5001 91.2001 26.7001 90.0001 25.5001Z" stroke="#DDDDDC" stroke-width="0.2"/>
<path d="M97.5 35C96.9999 37.4998 95.9998 40.9998 95.5 43C95.3333 44.8333 95 46 98.5001 49.0002C99.6668 49.3335 102.2 49.5002 103 47.5002C103.5 46 102.583 44.8305 102 42.5002C101.5 40.5 102 37 101 35.0002C99.921 32.8418 97.8776 33.7414 97.5 35Z" stroke="#DDDDDC" stroke-width="0.2"/>
</g>
<defs>
<clipPath id="clip0_224_4139">
<rect width="137" height="137" fill="white" transform="translate(10 10)"/>
</clipPath>
</defs>
</svg>
