<svg width="120" height="120" viewBox="0 0 120 120" fill="none" xmlns="http://www.w3.org/2000/svg">
<g clip-path="url(#clip0_1683_52)">
<path d="M57.1221 0.266811C56.8029 0.777449 57.4625 0.905109 60.1221 0.841279C62.3987 0.777449 62.8668 0.71362 62.8668 0.4583C62.8668 0.202981 62.3774 0.139151 60.0583 0.0753216C58.1646 0.0327684 57.2072 0.0965983 57.1221 0.266811Z" fill="#3D5224"/>
<path d="M49.6763 0.776137C48.9741 0.94635 48.1656 1.07401 47.8677 1.09529C47.2082 1.09529 46.6124 1.88252 47.1231 2.07401C47.3997 2.18039 51.6975 1.64848 52.506 1.39316C52.6763 1.35061 52.7614 1.13784 52.7188 0.94635C52.6337 0.456988 51.3997 0.393158 49.6763 0.776137Z" fill="#3D5224"/>
<path d="M67.2908 0.796833C67.0993 1.30747 67.3972 1.43513 69.3546 1.71173C73.2269 2.2862 73.0142 2.2862 72.9291 1.71173C72.8652 1.26492 72.6738 1.17981 70.844 0.860663C68.2269 0.371301 67.461 0.371301 67.2908 0.796833Z" fill="#3D5224"/>
<path d="M39.7412 3.39163C37.72 4.07248 37.4434 4.22142 37.4434 4.64695C37.4434 5.30652 37.7625 5.28525 40.5285 4.30652C42.3795 3.64695 42.8689 3.39163 42.8689 3.09376C42.8689 2.47674 42.2306 2.54057 39.7412 3.39163Z" fill="#3D5224"/>
<path d="M77.0987 2.81799C77.0348 2.94565 77.0774 3.15842 77.205 3.28608C77.4816 3.56268 81.0987 4.92438 81.971 5.07331C82.5242 5.1797 82.5667 5.13714 82.5029 4.69033C82.4604 4.2648 82.0987 4.07331 80.3114 3.39246C78.0774 2.56267 77.354 2.43502 77.0987 2.81799Z" fill="#3D5224"/>
<path d="M30.6362 7.58355C29.5298 8.22185 28.5298 8.77504 28.4447 8.81759C28.1894 8.9027 28.5085 9.60483 28.8064 9.60483C28.9341 9.6261 30.0617 9.11547 31.317 8.49844C33.1681 7.58355 33.5936 7.28568 33.5936 6.88142C33.6149 6.11546 32.8702 6.30695 30.6362 7.58355Z" fill="#3D5224"/>
<path d="M86.396 6.88142C86.396 7.28568 86.8215 7.58355 88.6726 8.49844C89.9279 9.11547 91.0768 9.6261 91.2257 9.60483C91.3534 9.60483 91.4811 9.41334 91.4811 9.20057C91.4811 8.88142 90.9066 8.45589 89.396 7.60483C87.0981 6.28568 86.3747 6.11547 86.396 6.88142Z" fill="#3D5224"/>
<path d="M22.6582 12.923C21.8497 13.5824 20.9561 14.2843 20.6795 14.497C20.1689 14.9012 20.2327 15.5605 20.7646 15.5605C21.2752 15.5605 24.8923 12.5401 24.8923 12.1147C24.8923 11.4341 24.1901 11.6893 22.6582 12.923Z" fill="#3D5224"/>
<path d="M95.0968 12.1147C95.0968 12.5614 98.7138 15.5605 99.2457 15.5605C100.054 15.5605 99.4798 14.6672 97.7777 13.2421C96.0117 11.7318 95.0968 11.349 95.0968 12.1147Z" fill="#3D5224"/>
<path d="M14.9564 20.3455C14.0416 21.3452 13.2969 22.2811 13.2969 22.43C13.2969 22.5789 13.4884 22.7066 13.7437 22.7491C14.0841 22.7916 14.5735 22.3662 15.7224 21.0049C16.5522 20.0052 17.233 19.048 17.233 18.8779C17.233 18.1759 16.5522 18.6013 14.9564 20.3455Z" fill="#3D5224"/>
<path d="M102.756 18.984C102.756 19.4732 105.862 23.0042 106.309 23.0042C106.947 23.0042 106.501 22.0257 105.075 20.3241C103.543 18.5161 102.756 18.0694 102.756 18.984Z" fill="#3D5224"/>
<path d="M9.93588 26.8763C7.87205 29.6202 7.12737 31.3005 7.97843 31.3005C8.34013 31.3005 11.0635 27.174 11.0635 26.621C11.0635 25.9829 10.5103 26.1105 9.93588 26.8763Z" fill="#3D5224"/>
<path d="M108.925 26.7274C108.925 27.2166 111.691 31.3005 112.031 31.3005C112.563 31.3005 112.35 30.6624 111.138 28.5141C110.138 26.7699 109.861 26.4083 109.435 26.4083C109.138 26.4083 108.925 26.5359 108.925 26.7274Z" fill="#3D5224"/>
<path d="M5.12785 35.4917C4.55338 36.5978 3.21295 40.0862 3.31934 40.2563C3.51083 40.5967 4.25551 40.469 4.40444 40.0649C4.46827 39.8735 4.85125 38.895 5.25551 37.8953C6.27678 35.4279 6.31934 35.1301 5.78742 35.1301C5.5321 35.1301 5.25551 35.3003 5.12785 35.4917Z" fill="#3D5224"/>
<path d="M114.031 35.5117C114.031 35.7457 114.372 36.8305 114.776 37.894C115.18 38.9575 115.521 39.9785 115.521 40.1274C115.521 40.3827 115.967 40.6592 116.393 40.6592C116.797 40.6592 116.521 39.4255 115.67 37.3622C115.074 35.9797 114.648 35.2139 114.393 35.1714C114.159 35.1288 114.031 35.2352 114.031 35.5117Z" fill="#3D5224"/>
<path d="M1.95823 44.7652C1.55398 45.2544 0.660359 49.8914 0.936954 50.0616C1.51142 50.4657 1.76674 50.0829 2.171 48.2111C2.80929 45.1906 2.87312 44.4887 2.51142 44.4887C2.31993 44.4887 2.08589 44.6163 1.95823 44.7652Z" fill="#3D5224"/>
<path d="M117.307 44.9983C117.243 45.1685 117.392 46.1895 117.626 47.253C117.881 48.3378 118.073 49.4226 118.073 49.6991C118.073 50.1883 118.583 50.5499 118.945 50.3159C119.52 49.9756 118.477 44.8707 117.796 44.7431C117.605 44.7005 117.371 44.8069 117.307 44.9983Z" fill="#3D5224"/>
<path d="M0.25584 54.7398C-0.0633093 55.0589 -0.105863 60.1425 0.213286 60.334C0.340946 60.419 0.596265 60.3552 0.766478 60.2063C1.0218 59.9936 1.06435 59.4406 1.0218 57.2923C0.957967 54.676 0.809031 54.1868 0.25584 54.7398Z" fill="#3D5224"/>
<path d="M119.073 54.633C118.988 54.6968 118.924 55.9943 118.924 57.462C118.924 59.589 118.988 60.2272 119.243 60.4399C119.413 60.5675 119.647 60.6313 119.775 60.5462C120.094 60.3548 120.051 55.0584 119.732 54.7394C119.434 54.4416 119.264 54.4203 119.073 54.633Z" fill="#3D5224"/>
<path d="M0.29819 65.0129C0.0641477 65.5872 0.659892 69.969 1.00032 70.2455C1.61734 70.756 1.76628 70.1604 1.51096 68.2673C1.3833 67.3102 1.25564 66.119 1.21308 65.6511C1.19181 65.0342 1.06415 64.779 0.787552 64.7364C0.596063 64.6939 0.36202 64.8215 0.29819 65.0129Z" fill="#3D5224"/>
<path d="M118.818 65.1628C118.775 65.3117 118.626 66.3965 118.499 67.5664C118.371 68.7363 118.222 69.8424 118.158 70.0338C118.031 70.4592 118.669 70.7357 119.031 70.4379C119.328 70.1827 119.903 65.7584 119.711 65.2479C119.541 64.8438 118.945 64.8012 118.818 65.1628Z" fill="#3D5224"/>
<path d="M1.91602 75.0539C1.91602 75.3942 2.21389 76.6705 2.57559 77.9254C3.12878 79.7972 3.32027 80.2227 3.6607 80.2227C3.87346 80.2227 4.1075 80.0738 4.19261 79.8823C4.32027 79.542 3.08623 75.2241 2.70325 74.7349C2.34155 74.2669 1.91602 74.4371 1.91602 75.0539Z" fill="#3D5224"/>
<path d="M117.286 74.9477C116.946 75.5008 115.584 79.9038 115.669 80.159C115.733 80.3079 115.903 80.4355 116.052 80.4355C116.499 80.4355 116.712 80.0101 117.499 77.564C118.031 75.8836 118.18 75.1604 118.031 74.969C117.754 74.6287 117.499 74.6287 117.286 74.9477Z" fill="#3D5224"/>
<path d="M5.31909 84.6036C5.31909 85.4331 7.46803 89.3682 7.93611 89.3682C8.55313 89.3682 8.34037 88.5386 7.17016 86.2839C6.02122 84.0931 5.31909 83.4337 5.31909 84.6036Z" fill="#3D5224"/>
<path d="M112.648 86.603C111.521 88.879 111.351 89.666 112.095 89.5383C112.499 89.4533 114.648 85.4544 114.67 84.7312C114.67 84.4121 114.542 84.2632 114.244 84.2632C113.925 84.2632 113.563 84.795 112.648 86.603Z" fill="#3D5224"/>
<path d="M10.2331 93.454C10.2544 94.1559 12.7863 97.538 13.3607 97.623C14.1905 97.7507 13.8927 96.9211 12.4246 94.9004C10.9778 92.9648 10.1905 92.433 10.2331 93.454Z" fill="#3D5224"/>
<path d="M108.266 93.9844C107.989 94.4099 107.33 95.3245 106.755 95.9839C105.776 97.175 105.585 97.877 106.266 97.877C106.819 97.877 109.564 94.2822 109.564 93.5803C109.564 92.8996 108.776 93.1549 108.266 93.9844Z" fill="#3D5224"/>
<path d="M16.5947 101.238C16.5947 101.791 19.8075 104.896 20.382 104.896C20.6373 104.896 20.85 104.769 20.85 104.62C20.85 104.216 17.382 100.855 16.9564 100.855C16.7437 100.855 16.5947 101.025 16.5947 101.238Z" fill="#3D5224"/>
<path d="M100.48 102.791C98.7351 104.493 98.4585 105.109 99.4372 105.109C99.9904 105.109 103.182 101.983 103.182 101.43C103.182 100.6 102.224 101.089 100.48 102.791Z" fill="#3D5224"/>
<path d="M24.2529 107.854C24.2529 108.47 27.7636 111.065 28.5934 111.065C29.4444 111.065 28.8274 110.236 26.9125 108.875C24.8061 107.386 24.2529 107.173 24.2529 107.854Z" fill="#3D5224"/>
<path d="M94.1608 108.192C93.8204 108.469 92.8842 109.064 92.097 109.511C91.2885 109.958 90.6289 110.362 90.6289 110.426C90.6289 110.49 90.7353 110.682 90.8417 110.852C91.1183 111.277 91.8629 110.979 94.0332 109.554C95.1183 108.83 95.7353 108.277 95.7353 108.043C95.7353 107.49 94.9055 107.575 94.1608 108.192Z" fill="#3D5224"/>
<path d="M32.7627 113.233C32.7627 113.659 33.1031 113.872 34.9542 114.616C37.3372 115.616 38.167 115.765 38.0393 115.17C37.9755 114.85 33.6776 112.765 33.0393 112.765C32.8904 112.765 32.7627 112.978 32.7627 113.233Z" fill="#3D5224"/>
<path d="M83.8858 113.914C82.0348 114.659 81.7156 114.851 81.6943 115.255C81.6943 116 82.4603 115.872 84.8858 114.765C86.4603 114.021 87.0135 113.659 87.0135 113.382C87.0135 112.787 86.3539 112.893 83.8858 113.914Z" fill="#3D5224"/>
<path d="M42.166 116.957C42.2511 117.425 45.3575 118.532 46.6766 118.574C47.4213 118.617 47.549 118.553 47.549 118.191C47.549 117.83 47.2085 117.681 45.4213 117.191C42.8043 116.511 42.0596 116.447 42.166 116.957Z" fill="#3D5224"/>
<path d="M74.3116 117.189C72.5244 117.636 72.1201 117.806 72.1201 118.125C72.1201 118.784 72.652 118.784 75.2052 118.167C77.4393 117.614 77.652 117.529 77.652 117.082C77.652 116.444 77.1627 116.465 74.3116 117.189Z" fill="#3D5224"/>
<path d="M51.91 118.998C51.91 119.594 52.4632 119.743 55.0164 119.892C56.9526 120.02 57.6334 119.977 57.7611 119.785C58.1015 119.211 57.3356 118.977 54.6334 118.828C52.3143 118.722 51.91 118.743 51.91 118.998Z" fill="#3D5224"/>
<path d="M63.9302 118.914C62.3344 119.041 62.228 119.084 62.1642 119.552L62.0791 120.062L64.7174 119.914C67.2919 119.765 68.1217 119.509 67.7812 118.956C67.6323 118.722 66.9089 118.701 63.9302 118.914Z" fill="#3D5224"/>
<path d="M85.1554 89.4376H34.8365C30.7877 89.4376 27.5 86.1418 27.5 82.093V49.3055C27.5 45.2567 30.7958 41.9609 34.8365 41.9609H85.1554C89.2042 41.9609 92.4919 45.2567 92.4919 49.3055V82.093C92.5 86.1418 89.2042 89.4376 85.1554 89.4376ZM34.8446 43.127C31.4436 43.127 28.6742 45.8964 28.6742 49.2974V82.0849C28.6742 85.494 31.4436 88.2634 34.8446 88.2634H85.1635C88.5645 88.2634 91.3339 85.494 91.3339 82.0849V49.2974C91.3339 45.8964 88.5645 43.127 85.1635 43.127H34.8446Z" fill="#3D5224"/>
<path d="M91.917 76.3837H71.4785C71.2518 76.3837 71.0412 76.246 70.944 76.0355C70.8469 75.825 70.8874 75.582 71.0412 75.4039C73.4057 72.7155 74.7014 69.2658 74.7014 65.6948C74.7014 62.1156 73.3976 58.666 71.0412 55.9857C70.8874 55.8156 70.855 55.5646 70.944 55.3541C71.0412 55.1435 71.2518 55.0059 71.4785 55.0059H91.917C92.2409 55.0059 92.5 55.265 92.5 55.5889V75.7845C92.5 76.1165 92.2409 76.3837 91.917 76.3837ZM72.7093 75.2095H91.334V56.18H72.7093C74.758 58.917 75.8755 62.2452 75.8755 65.6948C75.8674 69.1363 74.758 72.4725 72.7093 75.2095Z" fill="#3D5224"/>
<path d="M48.5294 76.3834H28.0908C27.7669 76.3834 27.5078 76.1162 27.5078 75.8004V55.6048C27.5078 55.2809 27.7669 55.0217 28.0908 55.0217H48.5294C48.7561 55.0217 48.9666 55.1594 49.0638 55.3699C49.161 55.5805 49.1205 55.8234 48.9666 56.0015C46.6102 58.6819 45.3065 62.1315 45.3065 65.7107C45.3065 69.2736 46.594 72.707 48.9342 75.3874C49.0476 75.4926 49.1124 75.6465 49.1124 75.8085C49.1124 76.1162 48.8533 76.3834 48.5294 76.3834ZM28.6739 75.2092H47.2985C45.2498 72.4722 44.1404 69.1441 44.1404 65.6945C44.1404 62.2448 45.2579 58.9167 47.2985 56.1797H28.6739V75.2092Z" fill="#3D5224"/>
<path d="M60.0041 81.5735C51.2586 81.5735 44.1407 74.4476 44.1407 65.694C44.1407 56.9323 51.2586 49.8145 60.0041 49.8145C68.7577 49.8145 75.8755 56.9404 75.8755 65.694C75.8674 74.4476 68.7496 81.5735 60.0041 81.5735ZM60.0041 50.9805C51.8983 50.9805 45.3068 57.5801 45.3068 65.694C45.3068 73.7997 51.8983 80.3993 60.0041 80.3993C68.1098 80.3993 74.7013 73.7997 74.7013 65.694C74.7013 57.5801 68.1017 50.9805 60.0041 50.9805Z" fill="#3D5224"/>
<path d="M60.0038 76.3837C54.1168 76.3837 49.3311 71.5899 49.3311 65.6948C49.3311 59.7997 54.1168 55.0059 60.0038 55.0059C65.8908 55.0059 70.6765 59.7997 70.6765 65.6948C70.6765 71.5899 65.8908 76.3837 60.0038 76.3837ZM60.0038 56.18C54.7646 56.18 50.4971 60.4475 50.4971 65.6948C50.4971 70.9421 54.7646 75.2095 60.0038 75.2095C65.243 75.2095 69.5104 70.9421 69.5104 65.6948C69.5023 60.4475 65.243 56.18 60.0038 56.18Z" fill="#3D5224"/>
<path d="M34.9257 52.9256C33.3709 52.9256 32.0996 51.6624 32.0996 50.0995C32.0996 48.5367 33.3628 47.2734 34.9257 47.2734C36.4804 47.2734 37.7518 48.5367 37.7518 50.0995C37.7518 51.6624 36.4804 52.9256 34.9257 52.9256ZM34.9257 48.4476C34.0107 48.4476 33.2738 49.1926 33.2738 50.0995C33.2738 51.0065 34.0107 51.7514 34.9257 51.7514C35.8407 51.7514 36.5776 51.0065 36.5776 50.0995C36.5776 49.1926 35.8407 48.4476 34.9257 48.4476Z" fill="#3D5224"/>
<path d="M76.386 43.1263H46.0764C45.8902 43.1263 45.712 43.0373 45.5987 42.8834C45.4853 42.7295 45.461 42.5352 45.5177 42.3571L49.5341 30.3968C49.6151 30.1619 49.8419 30 50.0929 30H72.3696C72.6206 30 72.8473 30.1619 72.9283 30.3968L76.9286 42.3004C76.9609 42.3732 76.9771 42.4542 76.9771 42.5433C76.969 42.8591 76.7099 43.1263 76.386 43.1263ZM46.8862 41.9522H75.5682L71.9404 31.1661H50.5059L46.8862 41.9522Z" fill="#3D5224"/>
<path d="M39.6546 43.127H35.0147C34.6908 43.127 34.4316 42.8679 34.4316 42.544V38.1065C34.4316 37.7826 34.6908 37.5234 35.0147 37.5234H39.6546C39.9786 37.5234 40.2377 37.7826 40.2377 38.1065V42.544C40.2377 42.8598 39.9786 43.127 39.6546 43.127ZM35.5977 41.9529H39.0716V38.6895H35.5977V41.9529Z" fill="#3D5224"/>
<path d="M69.2034 43.1268H53.251C53.0647 43.1268 52.8785 43.0377 52.7732 42.8758C52.668 42.7219 52.6356 42.5195 52.7003 42.3413L54.8138 36.3652C54.8948 36.1304 55.1215 35.9766 55.3645 35.9766H67.0899C67.3409 35.9766 67.5596 36.1304 67.6405 36.3652L69.7378 42.2927C69.7702 42.3656 69.7945 42.4547 69.7945 42.5438C69.7864 42.8596 69.5273 43.1268 69.2034 43.1268ZM54.0769 41.9526H68.3693L66.6688 37.1426H55.7693L54.0769 41.9526Z" fill="#3D5224"/>
</g>
<defs>
<clipPath id="clip0_1683_52">
<rect width="120" height="120" fill="white"/>
</clipPath>
</defs>
</svg>
