<svg width="120" height="120" viewBox="0 0 120 120" fill="none" xmlns="http://www.w3.org/2000/svg">
<g clip-path="url(#clip0_1683_1125)">
<path d="M57.1221 0.266811C56.8029 0.777449 57.4625 0.905109 60.1221 0.841279C62.3987 0.777449 62.8668 0.71362 62.8668 0.4583C62.8668 0.202981 62.3774 0.139151 60.0583 0.0753216C58.1646 0.0327684 57.2072 0.0965983 57.1221 0.266811Z" fill="#3D5224"/>
<path d="M49.6761 0.776137C48.974 0.94635 48.1655 1.07401 47.8676 1.09529C47.208 1.09529 46.6123 1.88252 47.1229 2.07401C47.3995 2.18039 51.6974 1.64848 52.5059 1.39316C52.6761 1.35061 52.7612 1.13784 52.7187 0.94635C52.6336 0.456988 51.3995 0.393158 49.6761 0.776137Z" fill="#3D5224"/>
<path d="M67.2918 0.796833C67.1003 1.30747 67.3981 1.43513 69.3556 1.71173C73.2279 2.2862 73.0152 2.2862 72.9301 1.71173C72.8662 1.26492 72.6747 1.17981 70.8449 0.860663C68.2279 0.371301 67.462 0.371301 67.2918 0.796833Z" fill="#3D5224"/>
<path d="M39.7412 3.39163C37.72 4.07248 37.4434 4.22142 37.4434 4.64695C37.4434 5.30652 37.7625 5.28525 40.5285 4.30652C42.3795 3.64695 42.8689 3.39163 42.8689 3.09376C42.8689 2.47674 42.2306 2.54057 39.7412 3.39163Z" fill="#3D5224"/>
<path d="M77.0987 2.81799C77.0348 2.94565 77.0774 3.15842 77.205 3.28608C77.4816 3.56268 81.0987 4.92438 81.971 5.07331C82.5242 5.1797 82.5667 5.13714 82.5029 4.69033C82.4604 4.2648 82.0987 4.07331 80.3114 3.39246C78.0774 2.56267 77.354 2.43502 77.0987 2.81799Z" fill="#3D5224"/>
<path d="M30.6362 7.58355C29.5298 8.22185 28.5298 8.77504 28.4447 8.81759C28.1894 8.9027 28.5085 9.60483 28.8064 9.60483C28.9341 9.6261 30.0617 9.11547 31.317 8.49844C33.1681 7.58355 33.5936 7.28568 33.5936 6.88142C33.6149 6.11546 32.8702 6.30695 30.6362 7.58355Z" fill="#3D5224"/>
<path d="M86.396 6.88142C86.396 7.28568 86.8215 7.58355 88.6726 8.49844C89.9279 9.11547 91.0768 9.6261 91.2257 9.60483C91.3534 9.60483 91.4811 9.41334 91.4811 9.20057C91.4811 8.88142 90.9066 8.45589 89.396 7.60483C87.0981 6.28568 86.3747 6.11547 86.396 6.88142Z" fill="#3D5224"/>
<path d="M22.6582 12.923C21.8497 13.5824 20.9561 14.2843 20.6795 14.497C20.1689 14.9012 20.2327 15.5605 20.7646 15.5605C21.2752 15.5605 24.8923 12.5401 24.8923 12.1147C24.8923 11.4341 24.1901 11.6893 22.6582 12.923Z" fill="#3D5224"/>
<path d="M95.0968 12.1147C95.0968 12.5614 98.7138 15.5605 99.2457 15.5605C100.054 15.5605 99.4798 14.6672 97.7777 13.2421C96.0117 11.7318 95.0968 11.349 95.0968 12.1147Z" fill="#3D5224"/>
<path d="M14.9567 20.3455C14.0418 21.3452 13.2971 22.2811 13.2971 22.43C13.2971 22.5789 13.4886 22.7066 13.7439 22.7491C14.0844 22.7916 14.5737 22.3662 15.7227 21.0049C16.5524 20.0052 17.2333 19.048 17.2333 18.8779C17.2333 18.1759 16.5524 18.6013 14.9567 20.3455Z" fill="#3D5224"/>
<path d="M102.756 18.984C102.756 19.4732 105.862 23.0042 106.309 23.0042C106.947 23.0042 106.501 22.0257 105.075 20.3241C103.543 18.5161 102.756 18.0694 102.756 18.984Z" fill="#3D5224"/>
<path d="M9.93588 26.8763C7.87205 29.6202 7.12737 31.3005 7.97843 31.3005C8.34013 31.3005 11.0635 27.174 11.0635 26.621C11.0635 25.9829 10.5103 26.1105 9.93588 26.8763Z" fill="#3D5224"/>
<path d="M108.925 26.7274C108.925 27.2166 111.691 31.3005 112.031 31.3005C112.563 31.3005 112.35 30.6624 111.138 28.5141C110.138 26.7699 109.861 26.4083 109.435 26.4083C109.138 26.4083 108.925 26.5359 108.925 26.7274Z" fill="#3D5224"/>
<path d="M5.12785 35.4917C4.55338 36.5978 3.21295 40.0862 3.31934 40.2563C3.51083 40.5967 4.25551 40.469 4.40444 40.0649C4.46827 39.8735 4.85125 38.895 5.25551 37.8953C6.27678 35.4279 6.31934 35.1301 5.78742 35.1301C5.5321 35.1301 5.25551 35.3003 5.12785 35.4917Z" fill="#3D5224"/>
<path d="M114.031 35.5117C114.031 35.7457 114.372 36.8305 114.776 37.894C115.18 38.9575 115.521 39.9785 115.521 40.1274C115.521 40.3827 115.967 40.6592 116.393 40.6592C116.797 40.6592 116.521 39.4255 115.67 37.3622C115.074 35.9797 114.648 35.2139 114.393 35.1714C114.159 35.1288 114.031 35.2352 114.031 35.5117Z" fill="#3D5224"/>
<path d="M1.95823 44.7652C1.55398 45.2544 0.660359 49.8914 0.936954 50.0616C1.51142 50.4657 1.76674 50.0829 2.171 48.2111C2.80929 45.1906 2.87312 44.4887 2.51142 44.4887C2.31993 44.4887 2.08589 44.6163 1.95823 44.7652Z" fill="#3D5224"/>
<path d="M117.307 44.9983C117.243 45.1685 117.392 46.1895 117.626 47.253C117.881 48.3378 118.073 49.4226 118.073 49.6991C118.073 50.1883 118.583 50.5499 118.945 50.3159C119.52 49.9756 118.477 44.8707 117.796 44.7431C117.605 44.7005 117.371 44.8069 117.307 44.9983Z" fill="#3D5224"/>
<path d="M0.25584 54.7398C-0.0633093 55.0589 -0.105863 60.1425 0.213286 60.334C0.340946 60.419 0.596265 60.3552 0.766478 60.2063C1.0218 59.9936 1.06435 59.4406 1.0218 57.2923C0.957967 54.676 0.809031 54.1868 0.25584 54.7398Z" fill="#3D5224"/>
<path d="M119.073 54.633C118.988 54.6968 118.924 55.9943 118.924 57.462C118.924 59.589 118.988 60.2272 119.243 60.4399C119.413 60.5675 119.647 60.6313 119.775 60.5462C120.094 60.3548 120.051 55.0584 119.732 54.7394C119.434 54.4416 119.264 54.4203 119.073 54.633Z" fill="#3D5224"/>
<path d="M0.298434 65.0129C0.0643919 65.5872 0.660137 69.969 1.00056 70.2455C1.61758 70.756 1.76652 70.1604 1.5112 68.2673C1.38354 67.3102 1.25588 66.119 1.21333 65.6511C1.19205 65.0342 1.06439 64.779 0.787796 64.7364C0.596307 64.6939 0.362264 64.8215 0.298434 65.0129Z" fill="#3D5224"/>
<path d="M118.818 65.1628C118.775 65.3117 118.626 66.3965 118.499 67.5664C118.371 68.7363 118.222 69.8424 118.158 70.0338C118.031 70.4592 118.669 70.7357 119.031 70.4379C119.328 70.1827 119.903 65.7584 119.711 65.2479C119.541 64.8438 118.945 64.8012 118.818 65.1628Z" fill="#3D5224"/>
<path d="M1.91504 75.0539C1.91504 75.3942 2.21291 76.6705 2.57461 77.9254C3.1278 79.7972 3.31929 80.2227 3.65972 80.2227C3.87249 80.2227 4.10653 80.0738 4.19163 79.8823C4.31929 79.542 3.08525 75.2241 2.70227 74.7349C2.34057 74.2669 1.91504 74.4371 1.91504 75.0539Z" fill="#3D5224"/>
<path d="M117.286 74.9477C116.946 75.5008 115.584 79.9038 115.669 80.159C115.733 80.3079 115.903 80.4355 116.052 80.4355C116.499 80.4355 116.712 80.0101 117.499 77.564C118.031 75.8836 118.18 75.1604 118.031 74.969C117.754 74.6287 117.499 74.6287 117.286 74.9477Z" fill="#3D5224"/>
<path d="M5.31909 84.6036C5.31909 85.4331 7.46803 89.3682 7.93611 89.3682C8.55313 89.3682 8.34037 88.5386 7.17016 86.2839C6.02122 84.0931 5.31909 83.4337 5.31909 84.6036Z" fill="#3D5224"/>
<path d="M112.649 86.603C111.521 88.879 111.351 89.666 112.095 89.5383C112.5 89.4533 114.649 85.4544 114.67 84.7312C114.67 84.4121 114.542 84.2632 114.244 84.2632C113.925 84.2632 113.563 84.795 112.649 86.603Z" fill="#3D5224"/>
<path d="M10.2331 93.454C10.2544 94.1559 12.7863 97.538 13.3607 97.623C14.1905 97.7507 13.8927 96.9211 12.4246 94.9004C10.9778 92.9648 10.1905 92.433 10.2331 93.454Z" fill="#3D5224"/>
<path d="M108.266 93.9844C107.989 94.4099 107.33 95.3245 106.755 95.9839C105.776 97.175 105.585 97.877 106.266 97.877C106.819 97.877 109.564 94.2822 109.564 93.5803C109.564 92.8996 108.776 93.1549 108.266 93.9844Z" fill="#3D5224"/>
<path d="M16.5945 101.238C16.5945 101.791 19.8072 104.896 20.3817 104.896C20.637 104.896 20.8498 104.769 20.8498 104.62C20.8498 104.216 17.3817 100.855 16.9562 100.855C16.7434 100.855 16.5945 101.025 16.5945 101.238Z" fill="#3D5224"/>
<path d="M100.48 102.791C98.7351 104.493 98.4585 105.109 99.4372 105.109C99.9904 105.109 103.182 101.983 103.182 101.43C103.182 100.6 102.224 101.089 100.48 102.791Z" fill="#3D5224"/>
<path d="M24.2529 107.854C24.2529 108.47 27.7636 111.065 28.5934 111.065C29.4444 111.065 28.8274 110.236 26.9125 108.875C24.8061 107.386 24.2529 107.173 24.2529 107.854Z" fill="#3D5224"/>
<path d="M94.1608 108.192C93.8204 108.469 92.8842 109.064 92.097 109.511C91.2885 109.958 90.6289 110.362 90.6289 110.426C90.6289 110.49 90.7353 110.682 90.8417 110.852C91.1183 111.277 91.8629 110.979 94.0332 109.554C95.1183 108.83 95.7353 108.277 95.7353 108.043C95.7353 107.49 94.9055 107.575 94.1608 108.192Z" fill="#3D5224"/>
<path d="M32.7627 113.233C32.7627 113.659 33.1031 113.872 34.9542 114.616C37.3372 115.616 38.167 115.765 38.0393 115.17C37.9755 114.85 33.6776 112.765 33.0393 112.765C32.8904 112.765 32.7627 112.978 32.7627 113.233Z" fill="#3D5224"/>
<path d="M83.8858 113.914C82.0348 114.659 81.7156 114.851 81.6943 115.255C81.6943 116 82.4603 115.872 84.8858 114.765C86.4603 114.021 87.0135 113.659 87.0135 113.382C87.0135 112.787 86.3539 112.893 83.8858 113.914Z" fill="#3D5224"/>
<path d="M42.166 116.957C42.2511 117.425 45.3575 118.532 46.6766 118.574C47.4213 118.617 47.549 118.553 47.549 118.191C47.549 117.83 47.2085 117.681 45.4213 117.191C42.8043 116.511 42.0596 116.447 42.166 116.957Z" fill="#3D5224"/>
<path d="M74.3116 117.189C72.5244 117.636 72.1201 117.806 72.1201 118.125C72.1201 118.784 72.652 118.784 75.2052 118.167C77.4393 117.614 77.652 117.529 77.652 117.082C77.652 116.444 77.1627 116.465 74.3116 117.189Z" fill="#3D5224"/>
<path d="M51.9102 118.998C51.9102 119.594 52.4633 119.743 55.0165 119.892C56.9527 120.02 57.6336 119.977 57.7612 119.785C58.1016 119.211 57.3357 118.977 54.6336 118.828C52.3144 118.722 51.9102 118.743 51.9102 118.998Z" fill="#3D5224"/>
<path d="M63.9302 118.914C62.3344 119.041 62.228 119.084 62.1642 119.552L62.0791 120.062L64.7174 119.914C67.2919 119.765 68.1217 119.509 67.7812 118.956C67.6323 118.722 66.9089 118.701 63.9302 118.914Z" fill="#3D5224"/>
<path d="M75.8414 95H44.7829C42.3289 95 40.3361 92.974 40.3361 90.4702V29.5298C40.3361 27.0349 42.3289 25 44.7829 25H75.8414C78.2954 25 80.2882 27.026 80.2882 29.5298V42.4646C80.2882 42.7831 80.0359 43.0397 79.7226 43.0397C79.4093 43.0397 79.1569 42.7831 79.1569 42.4646V29.5298C79.1569 27.6719 77.6688 26.1502 75.8414 26.1502H44.7829C42.9554 26.1502 41.4673 27.663 41.4673 29.5298V90.4702C41.4673 92.3281 42.9554 93.8499 44.7829 93.8499H75.8414C77.6688 93.8499 79.1569 92.337 79.1569 90.4702V63.9813C79.1569 63.6628 79.4093 63.4062 79.7226 63.4062C80.0359 63.4062 80.2882 63.6628 80.2882 63.9813V90.4702C80.2882 92.974 78.2954 95 75.8414 95Z" fill="#3D5224"/>
<path d="M60.3082 91.187C58.5416 91.187 57.1144 89.7273 57.1144 87.9401C57.1144 86.1529 58.5503 84.6931 60.3082 84.6931C62.066 84.6931 63.4932 86.1441 63.4932 87.9401C63.5019 89.7361 62.066 91.187 60.3082 91.187ZM60.3082 85.8521C59.1682 85.8521 58.2457 86.79 58.2457 87.9489C58.2457 89.1079 59.1682 90.0458 60.3082 90.0458C61.4395 90.0458 62.3619 89.1079 62.3619 87.9489C62.3706 86.79 61.4482 85.8521 60.3082 85.8521Z" fill="#3D5224"/>
<path d="M76.2249 81.818H44.3919C44.0787 81.818 43.8263 81.5614 43.8263 81.2429V34.9891C43.8263 34.6706 44.0787 34.4141 44.3919 34.4141H76.2249C76.5382 34.4141 76.7906 34.6706 76.7906 34.9891V42.8898C76.7906 43.2083 76.5382 43.4649 76.2249 43.4649C75.9116 43.4649 75.6592 43.2083 75.6592 42.8898V35.5642H44.9576V80.6679H75.6592V64.1499C75.6592 63.8314 75.9116 63.5748 76.2249 63.5748C76.5382 63.5748 76.7906 63.8314 76.7906 64.1499V81.2429C76.7906 81.5614 76.5382 81.818 76.2249 81.818Z" fill="#3D5224"/>
<path d="M65.843 31.2283H63.7022C63.3889 31.2283 63.1366 30.9717 63.1366 30.6532C63.1366 30.3347 63.3889 30.0781 63.7022 30.0781H65.843C66.1563 30.0781 66.4086 30.3347 66.4086 30.6532C66.4086 30.9717 66.1563 31.2283 65.843 31.2283ZM62.1706 31.2283H54.765C54.4517 31.2283 54.1993 30.9717 54.1993 30.6532C54.1993 30.3347 54.4517 30.0781 54.765 30.0781H62.1706C62.4839 30.0781 62.7363 30.3347 62.7363 30.6532C62.7363 30.9717 62.4839 31.2283 62.1706 31.2283Z" fill="#3D5224"/>
<path d="M89.5652 64.5382H66.5912C66.2779 64.5382 66.0255 64.2816 66.0255 63.9631V50.5594C66.0255 50.2409 66.2779 49.9844 66.5912 49.9844C66.9045 49.9844 67.1569 50.2409 67.1569 50.5594V63.3881H88.9996V50.5594C88.9996 50.2409 89.2519 49.9844 89.5652 49.9844C89.8785 49.9844 90.1308 50.2409 90.1308 50.5594V63.9631C90.1308 64.2816 89.8785 64.5382 89.5652 64.5382Z" fill="#3D5224"/>
<path d="M78.0953 60.3985C77.9735 60.3985 77.8429 60.3543 77.7472 60.2746L66.2428 51.0027C65.9991 50.808 65.9556 50.4453 66.1471 50.1975C66.3385 49.9498 66.6953 49.9056 66.939 50.1002L78.0953 59.0891L89.2081 50.1091C89.4518 49.9144 89.8086 49.9498 90 50.1975C90.1915 50.4453 90.1567 50.808 89.913 51.0027L78.4434 60.2746C78.3477 60.3631 78.2259 60.3985 78.0953 60.3985Z" fill="#3D5224"/>
<path d="M89.5651 64.5396L66.5736 64.5219C66.3386 64.5219 66.1211 64.3715 66.0428 64.1414C65.9644 63.9114 66.0341 63.6548 66.2168 63.5044L74.3448 56.6478C74.5884 56.4443 74.9365 56.4797 75.1367 56.7274C75.3368 56.9751 75.302 57.3379 75.0583 57.5325L68.14 63.3717L87.9812 63.3894L81.0281 57.6209C80.7845 57.4175 80.7496 57.0547 80.9498 56.807C81.1499 56.5593 81.5067 56.5239 81.7504 56.7274L89.9305 63.5133C90.1133 63.6637 90.1829 63.9202 90.1046 64.1503C90.0176 64.3891 89.8087 64.5396 89.5651 64.5396Z" fill="#3D5224"/>
<path d="M89.5649 51.1343C89.4431 51.1343 89.3125 51.09 89.2168 51.0104L78.1039 42.0304L66.9477 51.0104C66.704 51.2051 66.3472 51.1697 66.1557 50.9131C65.9643 50.6654 66.0078 50.3026 66.2514 50.108L77.7559 40.8448C77.9647 40.6767 78.2519 40.6767 78.4608 40.8448L89.9304 50.108C90.174 50.3026 90.2175 50.6654 90.0174 50.9131C89.8955 51.0546 89.7302 51.1343 89.5649 51.1343Z" fill="#3D5224"/>
<path d="M81.5327 48.9041H73.1263C72.8131 48.9041 72.5607 48.6475 72.5607 48.329C72.5607 48.0105 72.8131 47.7539 73.1263 47.7539H81.5327C81.846 47.7539 82.0984 48.0105 82.0984 48.329C82.0984 48.6475 81.846 48.9041 81.5327 48.9041Z" fill="#3D5224"/>
<path d="M78.5827 51.4099H73.1263C72.8131 51.4099 72.5607 51.1533 72.5607 50.8348C72.5607 50.5163 72.8131 50.2598 73.1263 50.2598H78.5827C78.896 50.2598 79.1483 50.5163 79.1483 50.8348C79.1483 51.1445 78.896 51.4099 78.5827 51.4099Z" fill="#3D5224"/>
<path d="M81.5328 53.7713H75.3716C75.0583 53.7713 74.8059 53.5147 74.8059 53.1962C74.8059 52.8777 75.0583 52.6211 75.3716 52.6211H81.5328C81.846 52.6211 82.0984 52.8777 82.0984 53.1962C82.0984 53.5147 81.846 53.7713 81.5328 53.7713Z" fill="#3D5224"/>
</g>
<defs>
<clipPath id="clip0_1683_1125">
<rect width="120" height="120" fill="white"/>
</clipPath>
</defs>
</svg>
