<svg width="24" height="25" viewBox="0 0 24 25" fill="none" xmlns="http://www.w3.org/2000/svg">
<path d="M18.6667 8.93023H10V13.8391H9.07692V12.1705C9.07585 11.2251 8.69088 10.3188 8.00647 9.65026C7.32207 8.98175 6.39412 8.60572 5.42621 8.60465H3.33333V6H2V20H3.33333V18.057L20.6667 18.1924V20H22V12.186C21.999 11.3229 21.6475 10.4953 21.0226 9.88492C20.3977 9.27455 19.5504 8.93121 18.6667 8.93023ZM3.33333 9.90698H5.42621C6.0406 9.90766 6.62963 10.1463 7.06407 10.5707C7.49851 10.995 7.74289 11.5704 7.74358 12.1705V13.8391H3.33333V9.90698ZM20.6667 16.89L3.33333 16.7546V15.1415H20.6667V16.89ZM20.6667 13.8391H11.3333V10.2326H18.6667C19.1969 10.2332 19.7053 10.4392 20.0802 10.8054C20.4552 11.1716 20.6661 11.6681 20.6667 12.186V13.8391Z" fill="#464646"/>
</svg>
