<svg width="24" height="25" viewBox="0 0 24 25" fill="none" xmlns="http://www.w3.org/2000/svg">
<path d="M12.0379 5.42012C11.6345 5.54714 11.3431 5.80118 11.1712 6.17103C11.0816 6.36529 11.0666 6.45122 11.0554 6.83228L11.0405 7.26938L10.9022 7.29553C7.33073 7.91942 4.51014 10.8297 3.96843 14.4348C3.93855 14.6477 3.9124 14.8906 3.9124 14.9765C3.9124 15.0662 3.89745 15.1558 3.88251 15.1782C3.86757 15.2044 3.72187 15.2268 3.55001 15.2343C3.25862 15.2492 3.23246 15.2567 3.12039 15.3725C3.00084 15.4921 2.9971 15.4995 3.00084 15.8208C3.00831 16.8034 3.63594 17.7597 4.56618 18.2193C5.1938 18.5256 4.48025 18.4994 12.3928 18.4994C20.3055 18.4994 19.5882 18.5256 20.2195 18.2193C20.7762 17.9503 21.2282 17.4945 21.5084 16.9304C21.6989 16.5381 21.7774 16.2206 21.7849 15.8208C21.7886 15.4995 21.7849 15.4921 21.6653 15.3725C21.5495 15.2567 21.5271 15.2492 21.2282 15.2343C20.8621 15.2193 20.9032 15.2791 20.8397 14.6776C20.7575 13.8894 20.5035 12.9629 20.1635 12.2045C19.0465 9.72012 16.79 7.90074 14.145 7.3441L13.7452 7.26191L13.7303 6.82854C13.7191 6.45122 13.7041 6.36529 13.6145 6.17103C13.5024 5.92819 13.3119 5.71151 13.0989 5.57329C12.8075 5.38649 12.3555 5.31925 12.0379 5.42012ZM12.7067 6.41012C12.815 6.51847 12.8225 6.54835 12.8374 6.84349L12.8486 7.16104H12.3928H11.9371L11.9483 6.84722C11.9632 6.5745 11.9744 6.51847 12.0566 6.43254C12.1799 6.29805 12.2696 6.26069 12.4452 6.27937C12.546 6.29058 12.6282 6.33167 12.7067 6.41012ZM13.1251 8.09874C15.8 8.36026 18.1573 10.0265 19.293 12.4585C19.6293 13.1758 19.8982 14.1471 19.9692 14.9018L19.9991 15.2305H12.3928H4.78659L4.81648 14.9018C5.00701 12.8396 6.15393 10.8259 7.87243 9.55574C9.37052 8.44244 11.2721 7.91569 13.1251 8.09874ZM20.8359 16.1981C20.8359 16.2355 20.7724 16.3924 20.6977 16.5418C20.5296 16.8781 20.2008 17.218 19.8796 17.3862C19.4088 17.6327 19.8646 17.6215 12.3928 17.6215C4.92108 17.6215 5.37686 17.6327 4.90614 17.3862C4.58485 17.218 4.2561 16.8781 4.08798 16.5418C4.01326 16.3924 3.94975 16.2355 3.94975 16.1981C3.94975 16.1309 4.17764 16.1272 12.3928 16.1272C20.6081 16.1272 20.8359 16.1309 20.8359 16.1981Z" fill="#464646"/>
</svg>
