<svg width="25" height="24" viewBox="0 0 25 24" fill="none" xmlns="http://www.w3.org/2000/svg">
<path d="M9.6154 12.1225L9.61268 12.1243C8.42274 12.8822 7.33542 13.9941 6.56817 15.146C5.78874 16.3161 5.40007 17.4346 5.46383 18.2127C5.56741 19.3165 5.94382 19.8655 6.45763 20.1021C6.89135 20.2955 7.09674 20.3407 7.27421 20.3274C7.46301 20.3134 7.70236 20.2272 8.18628 19.9495L8.18624 19.9495L8.19419 19.9451C8.72919 19.6496 9.19235 19.4299 9.70012 19.4299C10.2079 19.4299 10.671 19.6496 11.2061 19.9451L11.2061 19.9451L11.2092 19.9468C11.7579 20.2545 11.9563 20.3219 12.1109 20.3219C12.2654 20.3219 12.4638 20.2545 13.0126 19.9468L13.0126 19.9467L13.0228 19.9412C13.2795 19.8044 13.5556 19.6746 13.8007 19.5775C13.9231 19.529 14.0443 19.4859 14.1558 19.4542C14.2562 19.4256 14.3899 19.3937 14.5216 19.3937C14.6483 19.3937 14.7783 19.4223 14.8804 19.4499C14.9923 19.4802 15.1143 19.5217 15.2385 19.5699C15.4869 19.6661 15.7685 19.7983 16.0329 19.9481L16.0329 19.9481L16.0355 19.9495C16.5194 20.2272 16.7587 20.3134 16.9476 20.3274C17.125 20.3407 17.3304 20.2955 17.7641 20.1021C18.2778 19.8655 18.6542 19.3168 18.7579 18.2134C18.7987 17.6976 18.6498 17.0456 18.3182 16.3213C17.9894 15.603 17.4993 14.8537 16.9124 14.1602C15.7187 12.7497 14.2245 11.6827 13.0181 11.4807C12.503 11.399 12.2772 11.3678 12.0546 11.3694C11.8314 11.371 11.5974 11.4057 11.0691 11.4951C10.7323 11.5614 10.0637 11.8333 9.6154 12.1225ZM14.3215 13.5661L14.3215 13.5661L14.3273 13.5699C14.5441 13.7116 14.7763 13.8811 14.9199 14.1525C15.0614 14.4198 15.0769 14.7106 15.0769 14.9828C15.0769 15.2042 15.0474 15.4513 15.0011 15.6755C14.9568 15.8907 14.8881 16.1289 14.7888 16.3167C14.5685 16.7438 14.0518 17.2898 13.592 17.701C13.3515 17.916 13.1016 18.1166 12.8777 18.2673C12.7664 18.3422 12.6513 18.4117 12.5401 18.4646C12.4456 18.5095 12.2877 18.5756 12.1109 18.5756C11.9341 18.5756 11.7761 18.5095 11.6816 18.4646C11.5704 18.4117 11.4554 18.3422 11.3441 18.2673C11.1202 18.1166 10.8703 17.916 10.6298 17.701C10.17 17.2898 9.65323 16.7438 9.43298 16.3167C9.33367 16.1289 9.26499 15.8907 9.22062 15.6755C9.17438 15.4513 9.1449 15.2042 9.1449 14.9828C9.1449 14.7106 9.16033 14.4198 9.30183 14.1525C9.44548 13.8811 9.67768 13.7116 9.8945 13.5699L9.89447 13.5698L9.90026 13.5661C10.6042 13.1182 11.4575 13.1829 12.1109 13.6515C12.7643 13.1829 13.6175 13.1182 14.3215 13.5661Z" stroke="#3D5224" stroke-width="1.11045"/>
<rect x="7.73766" y="5.09537" width="2.40531" height="4.04599" rx="1.20265" transform="rotate(-10.7172 7.73766 5.09537)" stroke="#3D5224" stroke-width="1.11045"/>
<rect x="3.18745" y="8.27371" width="2.40531" height="4.04599" rx="1.20265" transform="rotate(-16.1043 3.18745 8.27371)" stroke="#3D5224" stroke-width="1.11045"/>
<rect x="-0.702216" y="0.35134" width="2.40531" height="4.04599" rx="1.20265" transform="matrix(-0.948767 -0.315977 -0.315977 0.948767 20.5936 7.78879)" stroke="#3D5224" stroke-width="1.11045"/>
<rect x="-0.648789" y="0.442289" width="2.40531" height="4.04599" rx="1.20265" transform="matrix(-0.982557 -0.185961 -0.185961 0.982557 15.3204 4.58018)" stroke="#3D5224" stroke-width="1.11045"/>
</svg>
