<svg width="24" height="25" viewBox="0 0 24 25" fill="none" xmlns="http://www.w3.org/2000/svg">
<path d="M11.7344 3.74194C11.5044 3.84212 11.3857 4.10184 11.4413 4.38383C11.4599 4.48772 11.5192 4.57306 11.6639 4.71034C11.9237 4.95523 11.9942 5.09993 11.9942 5.37821C11.9942 5.67875 11.894 5.86427 11.6083 6.08318C11.0925 6.48019 10.8291 6.99964 10.8291 7.62299C10.8291 8.14244 11.0072 8.57284 11.3708 8.94759C11.779 9.36686 12.1166 9.40397 12.3986 9.07003C12.6138 8.81773 12.5656 8.55429 12.2502 8.25004C12.009 8.01629 11.9422 7.88271 11.9422 7.62299C11.9422 7.3781 12.009 7.22227 12.1834 7.06643C12.6991 6.59892 12.7659 6.52472 12.9032 6.24644C13.2779 5.50065 13.1518 4.65469 12.5841 4.05361C12.265 3.71967 12.0053 3.6232 11.7344 3.74194Z" fill="#464646"/>
<path d="M14.5171 3.74194C14.2871 3.84212 14.1684 4.10184 14.224 4.38383C14.2426 4.48772 14.3019 4.57306 14.4467 4.71034C14.7064 4.95523 14.7769 5.09993 14.7769 5.37821C14.7769 5.67875 14.6767 5.86427 14.391 6.08318C13.8753 6.48019 13.6118 6.99964 13.6118 7.62299C13.6118 8.14244 13.7899 8.57284 14.1535 8.94759C14.5617 9.36686 14.8993 9.40397 15.1813 9.07003C15.3965 8.81773 15.3483 8.55429 15.0329 8.25004C14.7917 8.01629 14.7249 7.88271 14.7249 7.62299C14.7249 7.3781 14.7917 7.22227 14.9661 7.06643C15.4818 6.59892 15.5486 6.52472 15.6859 6.24644C16.0607 5.50065 15.9345 4.65469 15.3668 4.05361C15.0477 3.71967 14.788 3.6232 14.5171 3.74194Z" fill="#464646"/>
<path d="M17.2999 3.74194C17.0698 3.84212 16.9511 4.10184 17.0067 4.38383C17.0253 4.48772 17.0847 4.57306 17.2294 4.71034C17.4891 4.95523 17.5596 5.09993 17.5596 5.37821C17.5596 5.67875 17.4594 5.86427 17.1737 6.08318C16.658 6.48019 16.3945 6.99964 16.3945 7.62299C16.3945 8.14244 16.5726 8.57284 16.9362 8.94759C17.3444 9.36686 17.682 9.40397 17.964 9.07003C18.1792 8.81773 18.131 8.55429 17.8156 8.25004C17.5744 8.01629 17.5076 7.88271 17.5076 7.62299C17.5076 7.3781 17.5744 7.22227 17.7488 7.06643C18.2646 6.59892 18.3313 6.52472 18.4686 6.24644C18.8434 5.50065 18.7172 4.65469 18.1495 4.05361C17.8304 3.71967 17.5707 3.6232 17.2999 3.74194Z" fill="#464646"/>
<path d="M3.28941 8.22034C3.12986 8.30197 3 8.52088 3 8.69898C3 8.83997 3.1076 9.05888 3.24117 9.18132C3.51945 9.43734 3.83112 9.98648 3.99067 10.5059L4.09456 10.8324L4.11311 15.0252L4.13166 19.2179L4.22071 19.4776C4.48044 20.2605 4.98876 20.8579 5.68631 21.1992C6.12784 21.4181 6.39128 21.4775 6.91444 21.4775C7.44874 21.4812 7.69733 21.4218 8.19081 21.1807C8.61379 20.9729 9.06646 20.561 9.28537 20.1863C9.36329 20.0527 9.43379 19.9414 9.4375 19.9414C9.44492 19.9414 9.50799 20.1974 9.58591 20.5054C9.66383 20.8171 9.76401 21.1436 9.81225 21.2252C9.97921 21.5183 9.63044 21.4998 14.7508 21.4998C19.2477 21.4998 19.3034 21.4998 19.4592 21.4256C19.5668 21.3699 19.6373 21.3031 19.693 21.1918C19.8154 20.9469 22.0082 12.1237 21.986 11.9567C21.9637 11.7786 21.845 11.619 21.6854 11.5411C21.5704 11.4855 20.9545 11.4818 14.7433 11.4818C8.53217 11.4818 7.91624 11.4855 7.80122 11.5411C7.64168 11.619 7.52294 11.7786 7.50068 11.9567C7.48955 12.0569 7.65652 12.7878 8.09805 14.5502C8.4357 15.9045 8.71397 17.0176 8.71397 17.0288C8.71397 17.0399 7.93109 17.0473 6.9701 17.0473H5.22622V14.0679C5.22622 11.6747 5.21509 11.0217 5.17428 10.7397C5.04813 9.91227 4.70677 9.17762 4.13537 8.50233C3.83112 8.14613 3.58624 8.06079 3.28941 8.22034ZM20.5909 13.1403L20.4536 13.6894H14.7433H9.03307L8.89578 13.1403L8.7585 12.5949H14.7433H20.7282L20.5909 13.1403ZM11.1814 14.9027C11.2073 15.0252 11.571 17.9935 11.571 18.0825C11.571 18.1604 11.5598 18.1604 10.8586 18.153L10.1462 18.1419L9.73062 16.4796L9.31506 14.8211H10.2389H11.1628L11.1814 14.9027ZM14.1682 16.4908V18.1604H13.4447C12.7249 18.1604 12.7212 18.1604 12.7026 18.0751C12.6767 17.9564 12.313 14.9918 12.313 14.899C12.313 14.8211 12.3279 14.8211 13.2406 14.8211H14.1682V16.4908ZM17.1365 14.899C17.1365 14.9918 16.7729 17.9564 16.7469 18.0751C16.7284 18.1604 16.7247 18.1604 16.0049 18.1604H15.2813V16.4908V14.8211H16.2089C17.1217 14.8211 17.1365 14.8211 17.1365 14.899ZM19.756 16.4796L19.3405 18.1419L18.6095 18.153C17.8897 18.1604 17.8786 18.1604 17.8786 18.0825C17.8786 17.9935 18.2422 15.0252 18.2682 14.9027L18.2867 14.8211H19.2292H20.1716L19.756 16.4796ZM8.60266 18.5129C8.60266 18.7021 8.58411 18.9507 8.56185 19.0583C8.38004 19.908 7.51923 20.5017 6.67698 20.357C6.32449 20.2976 6.03509 20.1529 5.76423 19.9006C5.37464 19.5333 5.22622 19.1548 5.22622 18.524V18.1604H6.91444H8.60266V18.5129ZM18.9212 19.819L18.7839 20.3681H14.7433H10.7027L10.5655 19.819L10.4282 19.2735H14.7433H19.0585L18.9212 19.819Z" fill="#464646"/>
</svg>
